%TF.GenerationSoftware,Altium Limited,Altium Designer,23.5.1 (21)*%
G04 Layer_Physical_Order=2*
G04 Layer_Color=255*
%FSLAX45Y45*%
%MOMM*%
%TF.SameCoordinates,33354463-9AA4-47E1-AEF5-84200F0A8FA4*%
%TF.FilePolarity,Positive*%
%TF.FileFunction,Copper,L2,Bot,Signal*%
%TF.Part,Single*%
G01*
G75*
%TA.AperFunction,Conductor*%
%ADD27C,0.50000*%
%ADD28C,0.30000*%
%ADD29C,0.20000*%
%TA.AperFunction,ComponentPad*%
G04:AMPARAMS|DCode=31|XSize=2.5mm|YSize=1.5mm|CornerRadius=0.15mm|HoleSize=0mm|Usage=FLASHONLY|Rotation=0.000|XOffset=0mm|YOffset=0mm|HoleType=Round|Shape=RoundedRectangle|*
%AMROUNDEDRECTD31*
21,1,2.50000,1.20000,0,0,0.0*
21,1,2.20000,1.50000,0,0,0.0*
1,1,0.30000,1.10000,-0.60000*
1,1,0.30000,-1.10000,-0.60000*
1,1,0.30000,-1.10000,0.60000*
1,1,0.30000,1.10000,0.60000*
%
%ADD31ROUNDEDRECTD31*%
%ADD32O,2.50000X1.50000*%
%ADD33C,1.00000*%
%ADD34C,7.40000*%
%ADD35C,3.00000*%
%ADD36O,1.30000X1.50000*%
G04:AMPARAMS|DCode=37|XSize=1.5mm|YSize=1.3mm|CornerRadius=0.13mm|HoleSize=0mm|Usage=FLASHONLY|Rotation=90.000|XOffset=0mm|YOffset=0mm|HoleType=Round|Shape=RoundedRectangle|*
%AMROUNDEDRECTD37*
21,1,1.50000,1.04000,0,0,90.0*
21,1,1.24000,1.30000,0,0,90.0*
1,1,0.26000,0.52000,0.62000*
1,1,0.26000,0.52000,-0.62000*
1,1,0.26000,-0.52000,-0.62000*
1,1,0.26000,-0.52000,0.62000*
%
%ADD37ROUNDEDRECTD37*%
%ADD38C,1.60000*%
%ADD39O,1.50000X1.30000*%
G04:AMPARAMS|DCode=40|XSize=1.5mm|YSize=1.3mm|CornerRadius=0.13mm|HoleSize=0mm|Usage=FLASHONLY|Rotation=180.000|XOffset=0mm|YOffset=0mm|HoleType=Round|Shape=RoundedRectangle|*
%AMROUNDEDRECTD40*
21,1,1.50000,1.04000,0,0,180.0*
21,1,1.24000,1.30000,0,0,180.0*
1,1,0.26000,-0.62000,0.52000*
1,1,0.26000,0.62000,0.52000*
1,1,0.26000,0.62000,-0.52000*
1,1,0.26000,-0.62000,-0.52000*
%
%ADD40ROUNDEDRECTD40*%
%TA.AperFunction,ViaPad*%
%ADD41C,7.00000*%
%ADD42C,0.80000*%
G36*
X9369414Y30586D02*
X30586D01*
X30586Y9969414D01*
X9369414D01*
X9369414Y30586D01*
D02*
G37*
%LPC*%
G36*
X2384236Y9642000D02*
X2379501D01*
Y9479505D01*
X2542000D01*
Y9484236D01*
X2535275Y9518046D01*
X2522083Y9549894D01*
X2502931Y9578556D01*
X2478556Y9602932D01*
X2449893Y9622083D01*
X2418045Y9635275D01*
X2384236Y9642000D01*
D02*
G37*
G36*
X2354502D02*
X2349764D01*
X2315954Y9635275D01*
X2284106Y9622083D01*
X2255444Y9602932D01*
X2231068Y9578556D01*
X2211917Y9549894D01*
X2198725Y9518046D01*
X2192000Y9484236D01*
Y9479505D01*
X2354502D01*
Y9642000D01*
D02*
G37*
G36*
X1676743Y9810000D02*
X1643256D01*
X1610413Y9803467D01*
X1579475Y9790652D01*
X1551631Y9772048D01*
X1527952Y9748369D01*
X1509348Y9720525D01*
X1496533Y9689587D01*
X1490000Y9656743D01*
Y9623257D01*
X1496533Y9590413D01*
X1509348Y9559475D01*
X1527952Y9531631D01*
X1551631Y9507953D01*
X1579475Y9489348D01*
X1610413Y9476533D01*
X1643256Y9470000D01*
X1676743D01*
X1709587Y9476533D01*
X1740525Y9489348D01*
X1768368Y9507953D01*
X1792047Y9531631D01*
X1810652Y9559475D01*
X1823467Y9590413D01*
X1830000Y9623257D01*
Y9656743D01*
X1823467Y9689587D01*
X1810652Y9720525D01*
X1792047Y9748369D01*
X1768368Y9772048D01*
X1740525Y9790652D01*
X1709587Y9803467D01*
X1676743Y9810000D01*
D02*
G37*
G36*
X4234236Y9617000D02*
X4229501D01*
Y9454501D01*
X4392000D01*
Y9459236D01*
X4385274Y9493046D01*
X4372083Y9524894D01*
X4352931Y9553556D01*
X4328556Y9577932D01*
X4299893Y9597083D01*
X4268045Y9610275D01*
X4234236Y9617000D01*
D02*
G37*
G36*
X4204501D02*
X4199764D01*
X4165954Y9610275D01*
X4134106Y9597083D01*
X4105444Y9577932D01*
X4081068Y9553556D01*
X4061917Y9524894D01*
X4048725Y9493046D01*
X4042000Y9459236D01*
Y9454501D01*
X4204501D01*
Y9617000D01*
D02*
G37*
G36*
X6084236D02*
X6079499D01*
Y9454498D01*
X6242000D01*
Y9459236D01*
X6235275Y9493046D01*
X6222083Y9524894D01*
X6202931Y9553556D01*
X6178556Y9577932D01*
X6149894Y9597083D01*
X6118046Y9610275D01*
X6084236Y9617000D01*
D02*
G37*
G36*
X6054499D02*
X6049764D01*
X6015954Y9610275D01*
X5984106Y9597083D01*
X5955444Y9577932D01*
X5931069Y9553556D01*
X5911917Y9524894D01*
X5898725Y9493046D01*
X5892000Y9459236D01*
Y9454498D01*
X6054499D01*
Y9617000D01*
D02*
G37*
G36*
X7934236D02*
X7929496D01*
Y9454496D01*
X8092000D01*
Y9459236D01*
X8085275Y9493046D01*
X8072083Y9524894D01*
X8052931Y9553556D01*
X8028556Y9577932D01*
X7999894Y9597083D01*
X7968046Y9610275D01*
X7934236Y9617000D01*
D02*
G37*
G36*
X7904497D02*
X7899764D01*
X7865954Y9610275D01*
X7834106Y9597083D01*
X7805444Y9577932D01*
X7781069Y9553556D01*
X7761917Y9524894D01*
X7748725Y9493046D01*
X7742000Y9459236D01*
Y9454496D01*
X7904497D01*
Y9617000D01*
D02*
G37*
G36*
X7226743Y9785000D02*
X7193256D01*
X7160413Y9778467D01*
X7129475Y9765652D01*
X7101631Y9747048D01*
X7077952Y9723369D01*
X7059348Y9695525D01*
X7046533Y9664587D01*
X7040000Y9631744D01*
Y9598257D01*
X7046533Y9565413D01*
X7059348Y9534475D01*
X7077952Y9506631D01*
X7101631Y9482953D01*
X7129475Y9464348D01*
X7160413Y9451533D01*
X7193256Y9445000D01*
X7226743D01*
X7259587Y9451533D01*
X7290525Y9464348D01*
X7318368Y9482953D01*
X7342047Y9506631D01*
X7360652Y9534475D01*
X7373467Y9565413D01*
X7380000Y9598257D01*
Y9631744D01*
X7373467Y9664587D01*
X7360652Y9695525D01*
X7342047Y9723369D01*
X7318368Y9747048D01*
X7290525Y9765652D01*
X7259587Y9778467D01*
X7226743Y9785000D01*
D02*
G37*
G36*
X5376743D02*
X5343257D01*
X5310413Y9778467D01*
X5279475Y9765652D01*
X5251631Y9747048D01*
X5227952Y9723369D01*
X5209348Y9695525D01*
X5196533Y9664587D01*
X5190000Y9631744D01*
Y9598257D01*
X5196533Y9565413D01*
X5209348Y9534475D01*
X5227952Y9506631D01*
X5251631Y9482953D01*
X5279475Y9464348D01*
X5310413Y9451533D01*
X5343257Y9445000D01*
X5376743D01*
X5409587Y9451533D01*
X5440525Y9464348D01*
X5468369Y9482953D01*
X5492047Y9506631D01*
X5510652Y9534475D01*
X5523467Y9565413D01*
X5530000Y9598257D01*
Y9631744D01*
X5523467Y9664587D01*
X5510652Y9695525D01*
X5492047Y9723369D01*
X5468369Y9747048D01*
X5440525Y9765652D01*
X5409587Y9778467D01*
X5376743Y9785000D01*
D02*
G37*
G36*
X3526743D02*
X3493256D01*
X3460412Y9778467D01*
X3429474Y9765652D01*
X3401631Y9747048D01*
X3377952Y9723369D01*
X3359348Y9695525D01*
X3346533Y9664587D01*
X3340000Y9631744D01*
Y9598257D01*
X3346533Y9565413D01*
X3359348Y9534475D01*
X3377952Y9506631D01*
X3401631Y9482953D01*
X3429474Y9464348D01*
X3460412Y9451533D01*
X3493256Y9445000D01*
X3526743D01*
X3559587Y9451533D01*
X3590525Y9464348D01*
X3618368Y9482953D01*
X3642047Y9506631D01*
X3660652Y9534475D01*
X3673466Y9565413D01*
X3679999Y9598257D01*
Y9631744D01*
X3673466Y9664587D01*
X3660652Y9695525D01*
X3642047Y9723369D01*
X3618368Y9747048D01*
X3590525Y9765652D01*
X3559587Y9778467D01*
X3526743Y9785000D01*
D02*
G37*
G36*
X8669513Y9775000D02*
X8652499D01*
Y9412500D01*
X9014999D01*
Y9429513D01*
X9005766Y9487813D01*
X8987526Y9543950D01*
X8960728Y9596543D01*
X8926033Y9644296D01*
X8884296Y9686034D01*
X8836542Y9720729D01*
X8783949Y9747526D01*
X8727812Y9765766D01*
X8669513Y9775000D01*
D02*
G37*
G36*
X8627500D02*
X8610486D01*
X8552187Y9765766D01*
X8496050Y9747526D01*
X8443457Y9720729D01*
X8395703Y9686034D01*
X8353966Y9644296D01*
X8319271Y9596543D01*
X8292473Y9543950D01*
X8274233Y9487813D01*
X8264999Y9429513D01*
Y9412500D01*
X8627500D01*
Y9775000D01*
D02*
G37*
G36*
X629512D02*
X612498D01*
Y9412500D01*
X974999D01*
Y9429513D01*
X965765Y9487813D01*
X947525Y9543950D01*
X920727Y9596543D01*
X886033Y9644296D01*
X844295Y9686034D01*
X796541Y9720729D01*
X743948Y9747526D01*
X687811Y9765766D01*
X629512Y9775000D01*
D02*
G37*
G36*
X587499D02*
X570486D01*
X512186Y9765766D01*
X456049Y9747526D01*
X403456Y9720729D01*
X355702Y9686034D01*
X313965Y9644296D01*
X279270Y9596543D01*
X252472Y9543950D01*
X234232Y9487813D01*
X224999Y9429513D01*
Y9412500D01*
X587499D01*
Y9775000D01*
D02*
G37*
G36*
X2542000Y9454505D02*
X2379501D01*
Y9292000D01*
X2384236D01*
X2418045Y9298725D01*
X2449893Y9311917D01*
X2478556Y9331069D01*
X2502931Y9355444D01*
X2522083Y9384106D01*
X2535275Y9415954D01*
X2542000Y9449764D01*
Y9454505D01*
D02*
G37*
G36*
X2354502D02*
X2192000D01*
Y9449764D01*
X2198725Y9415954D01*
X2211917Y9384106D01*
X2231068Y9355444D01*
X2255444Y9331069D01*
X2284106Y9311917D01*
X2315954Y9298725D01*
X2349764Y9292000D01*
X2354502D01*
Y9454505D01*
D02*
G37*
G36*
X8092000Y9429497D02*
X7929496D01*
Y9267000D01*
X7934236D01*
X7968046Y9273725D01*
X7999894Y9286917D01*
X8028556Y9306069D01*
X8052931Y9330444D01*
X8072083Y9359107D01*
X8085275Y9390955D01*
X8092000Y9424764D01*
Y9429497D01*
D02*
G37*
G36*
X7904497D02*
X7742000D01*
Y9424764D01*
X7748725Y9390955D01*
X7761917Y9359107D01*
X7781069Y9330444D01*
X7805444Y9306069D01*
X7834106Y9286917D01*
X7865954Y9273725D01*
X7899764Y9267000D01*
X7904497D01*
Y9429497D01*
D02*
G37*
G36*
X6242000Y9429499D02*
X6079499D01*
Y9267000D01*
X6084236D01*
X6118046Y9273725D01*
X6149894Y9286917D01*
X6178556Y9306069D01*
X6202931Y9330444D01*
X6222083Y9359107D01*
X6235275Y9390955D01*
X6242000Y9424764D01*
Y9429499D01*
D02*
G37*
G36*
X6054499D02*
X5892000D01*
Y9424764D01*
X5898725Y9390955D01*
X5911917Y9359107D01*
X5931069Y9330444D01*
X5955444Y9306069D01*
X5984106Y9286917D01*
X6015954Y9273725D01*
X6049764Y9267000D01*
X6054499D01*
Y9429499D01*
D02*
G37*
G36*
X4392000Y9429501D02*
X4229501D01*
Y9267000D01*
X4234236D01*
X4268045Y9273725D01*
X4299893Y9286917D01*
X4328556Y9306069D01*
X4352931Y9330444D01*
X4372083Y9359107D01*
X4385274Y9390955D01*
X4392000Y9424764D01*
Y9429501D01*
D02*
G37*
G36*
X4204501D02*
X4042000D01*
Y9424764D01*
X4048725Y9390955D01*
X4061917Y9359107D01*
X4081068Y9330444D01*
X4105444Y9306069D01*
X4134106Y9286917D01*
X4165954Y9273725D01*
X4199764Y9267000D01*
X4204501D01*
Y9429501D01*
D02*
G37*
G36*
X9014999Y9387500D02*
X8652499D01*
Y9025000D01*
X8669513D01*
X8727812Y9034234D01*
X8783949Y9052474D01*
X8836542Y9079271D01*
X8884296Y9113966D01*
X8926033Y9155704D01*
X8960728Y9203457D01*
X8987526Y9256050D01*
X9005766Y9312187D01*
X9014999Y9370487D01*
Y9387500D01*
D02*
G37*
G36*
X8627500D02*
X8264999D01*
Y9370487D01*
X8274233Y9312187D01*
X8292473Y9256050D01*
X8319271Y9203457D01*
X8353966Y9155704D01*
X8395703Y9113966D01*
X8443457Y9079271D01*
X8496050Y9052474D01*
X8552187Y9034234D01*
X8610486Y9025000D01*
X8627500D01*
Y9387500D01*
D02*
G37*
G36*
X974999D02*
X612498D01*
Y9025000D01*
X629512D01*
X687811Y9034234D01*
X743948Y9052474D01*
X796541Y9079271D01*
X844295Y9113966D01*
X886033Y9155704D01*
X920727Y9203457D01*
X947525Y9256050D01*
X965765Y9312187D01*
X974999Y9370487D01*
Y9387500D01*
D02*
G37*
G36*
X587499D02*
X224999D01*
Y9370487D01*
X234232Y9312187D01*
X252472Y9256050D01*
X279270Y9203457D01*
X313965Y9155704D01*
X355702Y9113966D01*
X403456Y9079271D01*
X456049Y9052474D01*
X512186Y9034234D01*
X570486Y9025000D01*
X587499D01*
Y9387500D01*
D02*
G37*
G36*
X1276743Y9230000D02*
X1243256D01*
X1210413Y9223467D01*
X1179475Y9210652D01*
X1151631Y9192047D01*
X1127952Y9168369D01*
X1109348Y9140525D01*
X1096533Y9109587D01*
X1090000Y9076743D01*
Y9043256D01*
X1096533Y9010413D01*
X1109348Y8979475D01*
X1127952Y8951631D01*
X1151631Y8927952D01*
X1179475Y8909348D01*
X1210413Y8896533D01*
X1243256Y8890000D01*
X1276743D01*
X1309587Y8896533D01*
X1340525Y8909348D01*
X1368368Y8927952D01*
X1392047Y8951631D01*
X1410652Y8979475D01*
X1423467Y9010413D01*
X1430000Y9043256D01*
Y9076743D01*
X1423467Y9109587D01*
X1410652Y9140525D01*
X1392047Y9168369D01*
X1368368Y9192047D01*
X1340525Y9210652D01*
X1309587Y9223467D01*
X1276743Y9230000D01*
D02*
G37*
G36*
X6826743Y9205000D02*
X6793256D01*
X6760413Y9198467D01*
X6729475Y9185652D01*
X6701631Y9167047D01*
X6677952Y9143369D01*
X6659348Y9115525D01*
X6646533Y9084587D01*
X6640000Y9051743D01*
Y9018257D01*
X6646533Y8985413D01*
X6659348Y8954475D01*
X6677952Y8926631D01*
X6701631Y8902952D01*
X6729475Y8884348D01*
X6760413Y8871533D01*
X6793256Y8865000D01*
X6826743D01*
X6859587Y8871533D01*
X6890525Y8884348D01*
X6918368Y8902952D01*
X6942047Y8926631D01*
X6960652Y8954475D01*
X6973467Y8985413D01*
X6980000Y9018257D01*
Y9051743D01*
X6973467Y9084587D01*
X6960652Y9115525D01*
X6942047Y9143369D01*
X6918368Y9167047D01*
X6890525Y9185652D01*
X6859587Y9198467D01*
X6826743Y9205000D01*
D02*
G37*
G36*
X4976743D02*
X4943257D01*
X4910413Y9198467D01*
X4879475Y9185652D01*
X4851631Y9167047D01*
X4827952Y9143369D01*
X4809348Y9115525D01*
X4796533Y9084587D01*
X4790000Y9051743D01*
Y9018257D01*
X4796533Y8985413D01*
X4809348Y8954475D01*
X4827952Y8926631D01*
X4851631Y8902952D01*
X4879475Y8884348D01*
X4910413Y8871533D01*
X4943257Y8865000D01*
X4976743D01*
X5009587Y8871533D01*
X5040525Y8884348D01*
X5068369Y8902952D01*
X5092047Y8926631D01*
X5110652Y8954475D01*
X5123467Y8985413D01*
X5130000Y9018257D01*
Y9051743D01*
X5123467Y9084587D01*
X5110652Y9115525D01*
X5092047Y9143369D01*
X5068369Y9167047D01*
X5040525Y9185652D01*
X5009587Y9198467D01*
X4976743Y9205000D01*
D02*
G37*
G36*
X3126743D02*
X3093256D01*
X3060412Y9198467D01*
X3029475Y9185652D01*
X3001631Y9167047D01*
X2977952Y9143369D01*
X2959348Y9115525D01*
X2946533Y9084587D01*
X2940000Y9051743D01*
Y9018257D01*
X2946533Y8985413D01*
X2959348Y8954475D01*
X2977952Y8926631D01*
X3001631Y8902952D01*
X3029475Y8884348D01*
X3060412Y8871533D01*
X3093256Y8865000D01*
X3126743D01*
X3159587Y8871533D01*
X3190525Y8884348D01*
X3218368Y8902952D01*
X3242047Y8926631D01*
X3260652Y8954475D01*
X3273466Y8985413D01*
X3280000Y9018257D01*
Y9051743D01*
X3273466Y9084587D01*
X3260652Y9115525D01*
X3242047Y9143369D01*
X3218368Y9167047D01*
X3190525Y9185652D01*
X3159587Y9198467D01*
X3126743Y9205000D01*
D02*
G37*
G36*
X1930693Y9390000D02*
X1869306D01*
X1808675Y9380397D01*
X1750292Y9361427D01*
X1695595Y9333558D01*
X1645932Y9297475D01*
X1602524Y9254068D01*
X1566442Y9204405D01*
X1538572Y9149708D01*
X1519603Y9091325D01*
X1510000Y9030694D01*
Y8969306D01*
X1519603Y8908675D01*
X1538572Y8850292D01*
X1566442Y8795596D01*
X1602524Y8745932D01*
X1645932Y8702525D01*
X1695595Y8666442D01*
X1750292Y8638573D01*
X1808675Y8619603D01*
X1869306Y8610000D01*
X1930693D01*
X1991325Y8619603D01*
X2049708Y8638573D01*
X2104404Y8666442D01*
X2154068Y8702525D01*
X2197475Y8745932D01*
X2233558Y8795596D01*
X2261427Y8850292D01*
X2280397Y8908675D01*
X2290000Y8969306D01*
Y9030694D01*
X2280397Y9091325D01*
X2261427Y9149708D01*
X2233558Y9204405D01*
X2197475Y9254068D01*
X2154068Y9297475D01*
X2104404Y9333558D01*
X2049708Y9361427D01*
X1991325Y9380397D01*
X1930693Y9390000D01*
D02*
G37*
G36*
X2556743Y8930000D02*
X2523256D01*
X2490413Y8923467D01*
X2459475Y8910652D01*
X2431631Y8892047D01*
X2407952Y8868369D01*
X2389348Y8840525D01*
X2376533Y8809587D01*
X2370000Y8776743D01*
Y8743257D01*
X2376533Y8710413D01*
X2389348Y8679475D01*
X2407952Y8651631D01*
X2431631Y8627953D01*
X2459475Y8609348D01*
X2490413Y8596533D01*
X2523256Y8590000D01*
X2556743D01*
X2589587Y8596533D01*
X2620525Y8609348D01*
X2648368Y8627953D01*
X2672047Y8651631D01*
X2690652Y8679475D01*
X2703467Y8710413D01*
X2710000Y8743257D01*
Y8776743D01*
X2703467Y8809587D01*
X2690652Y8840525D01*
X2672047Y8868369D01*
X2648368Y8892047D01*
X2620525Y8910652D01*
X2589587Y8923467D01*
X2556743Y8930000D01*
D02*
G37*
G36*
X5630694Y9365000D02*
X5569306D01*
X5508675Y9355397D01*
X5450292Y9336427D01*
X5395596Y9308558D01*
X5345932Y9272475D01*
X5302525Y9229068D01*
X5266442Y9179405D01*
X5238573Y9124708D01*
X5219603Y9066325D01*
X5210000Y9005694D01*
Y8944306D01*
X5219603Y8883675D01*
X5238573Y8825292D01*
X5266442Y8770596D01*
X5302525Y8720932D01*
X5345932Y8677525D01*
X5395596Y8641442D01*
X5450292Y8613573D01*
X5508675Y8594603D01*
X5569306Y8585000D01*
X5630694D01*
X5691325Y8594603D01*
X5749708Y8613573D01*
X5804404Y8641442D01*
X5854068Y8677525D01*
X5897475Y8720932D01*
X5933558Y8770596D01*
X5961427Y8825292D01*
X5980397Y8883675D01*
X5990000Y8944306D01*
Y9005694D01*
X5980397Y9066325D01*
X5961427Y9124708D01*
X5933558Y9179405D01*
X5897475Y9229068D01*
X5854068Y9272475D01*
X5804404Y9308558D01*
X5749708Y9336427D01*
X5691325Y9355397D01*
X5630694Y9365000D01*
D02*
G37*
G36*
X3780693D02*
X3719306D01*
X3658674Y9355397D01*
X3600292Y9336427D01*
X3545595Y9308558D01*
X3495932Y9272475D01*
X3452524Y9229068D01*
X3416442Y9179405D01*
X3388572Y9124708D01*
X3369603Y9066325D01*
X3360000Y9005694D01*
Y8944306D01*
X3369603Y8883675D01*
X3388572Y8825292D01*
X3416442Y8770596D01*
X3452524Y8720932D01*
X3495932Y8677525D01*
X3545595Y8641442D01*
X3600292Y8613573D01*
X3658674Y8594603D01*
X3719306Y8585000D01*
X3780693D01*
X3841325Y8594603D01*
X3899708Y8613573D01*
X3954404Y8641442D01*
X4004068Y8677525D01*
X4047475Y8720932D01*
X4083557Y8770596D01*
X4111427Y8825292D01*
X4130397Y8883675D01*
X4140000Y8944306D01*
Y9005694D01*
X4130397Y9066325D01*
X4111427Y9124708D01*
X4083557Y9179405D01*
X4047475Y9229068D01*
X4004068Y9272475D01*
X3954404Y9308558D01*
X3899708Y9336427D01*
X3841325Y9355397D01*
X3780693Y9365000D01*
D02*
G37*
G36*
X7480693D02*
X7419306D01*
X7358675Y9355397D01*
X7300292Y9336427D01*
X7245595Y9308558D01*
X7195932Y9272475D01*
X7152524Y9229068D01*
X7116442Y9179405D01*
X7088573Y9124708D01*
X7069603Y9066325D01*
X7060000Y9005694D01*
Y8944306D01*
X7069603Y8883675D01*
X7088573Y8825292D01*
X7116442Y8770596D01*
X7152524Y8720932D01*
X7195932Y8677525D01*
X7245595Y8641442D01*
X7300292Y8613573D01*
X7358675Y8594603D01*
X7396694Y8588582D01*
X7395694Y8575882D01*
X6330714D01*
X6326861Y8588582D01*
X6348369Y8602953D01*
X6372047Y8626631D01*
X6390652Y8654475D01*
X6403467Y8685413D01*
X6410000Y8718257D01*
Y8751743D01*
X6403467Y8784587D01*
X6390652Y8815525D01*
X6372047Y8843369D01*
X6348369Y8867048D01*
X6320525Y8885652D01*
X6289587Y8898467D01*
X6256743Y8905000D01*
X6223257D01*
X6190413Y8898467D01*
X6159475Y8885652D01*
X6131631Y8867048D01*
X6107952Y8843369D01*
X6089348Y8815525D01*
X6076533Y8784587D01*
X6070000Y8751743D01*
Y8718257D01*
X6076533Y8685413D01*
X6089348Y8654475D01*
X6107952Y8626631D01*
X6131631Y8602953D01*
X6153139Y8588582D01*
X6149286Y8575882D01*
X6049999D01*
X6032441Y8572389D01*
X6017556Y8562443D01*
X6007610Y8547558D01*
X6004118Y8530000D01*
X6004118Y8529996D01*
Y7801169D01*
X6001941Y7798992D01*
X5992807Y7776939D01*
Y7753070D01*
X6001941Y7731018D01*
X6018819Y7714139D01*
X6040872Y7705005D01*
X6064741D01*
X6086794Y7714139D01*
X6103672Y7731018D01*
X6112806Y7753070D01*
Y7776939D01*
X6103672Y7798992D01*
X6095881Y7806783D01*
Y8484118D01*
X7405304D01*
X7408991Y8471965D01*
X7401631Y8467048D01*
X7377952Y8443369D01*
X7359348Y8415525D01*
X7346533Y8384587D01*
X7340000Y8351744D01*
Y8318257D01*
X7346533Y8285413D01*
X7359348Y8254475D01*
X7377952Y8226632D01*
X7401631Y8202953D01*
X7429475Y8184348D01*
X7460413Y8171533D01*
X7493256Y8165000D01*
X7526743D01*
X7559587Y8171533D01*
X7590525Y8184348D01*
X7618368Y8202953D01*
X7642047Y8226632D01*
X7660652Y8254475D01*
X7673466Y8285413D01*
X7680000Y8318257D01*
Y8351744D01*
X7673466Y8384587D01*
X7660652Y8415525D01*
X7642047Y8443369D01*
X7618368Y8467048D01*
X7611009Y8471965D01*
X7614695Y8484118D01*
X7780995D01*
X7830000Y8435114D01*
Y7258139D01*
X7817456Y7256152D01*
X7811427Y7274708D01*
X7783557Y7329405D01*
X7747475Y7379068D01*
X7704068Y7422476D01*
X7654404Y7458558D01*
X7599708Y7486427D01*
X7541325Y7505397D01*
X7480693Y7515000D01*
X7419306D01*
X7358674Y7505397D01*
X7300291Y7486427D01*
X7245595Y7458558D01*
X7195932Y7422476D01*
X7152524Y7379068D01*
X7116442Y7329405D01*
X7088572Y7274708D01*
X7069603Y7216325D01*
X7060000Y7155694D01*
Y7094307D01*
X7069603Y7033675D01*
X7088572Y6975292D01*
X7116442Y6920596D01*
X7152524Y6870932D01*
X7195932Y6827525D01*
X7245595Y6791442D01*
X7300291Y6763573D01*
X7358674Y6744603D01*
X7419306Y6735000D01*
X7480693D01*
X7541325Y6744603D01*
X7599708Y6763573D01*
X7613115Y6770404D01*
X7620580Y6760130D01*
X7527143Y6666694D01*
X7517198Y6651809D01*
X7513705Y6634250D01*
Y6468816D01*
X6982557Y5937668D01*
X6972611Y5922783D01*
X6969118Y5905224D01*
Y5305714D01*
X6956418Y5301861D01*
X6942047Y5323369D01*
X6918368Y5347047D01*
X6890525Y5365652D01*
X6859587Y5378467D01*
X6826743Y5385000D01*
X6793256D01*
X6760412Y5378467D01*
X6729474Y5365652D01*
X6701631Y5347047D01*
X6677952Y5323369D01*
X6659348Y5295525D01*
X6646533Y5264587D01*
X6640000Y5231743D01*
Y5198257D01*
X6646533Y5165413D01*
X6659348Y5134475D01*
X6677952Y5106631D01*
X6701631Y5082952D01*
X6729474Y5064348D01*
X6760412Y5051533D01*
X6793256Y5045000D01*
X6826743D01*
X6859587Y5051533D01*
X6890525Y5064348D01*
X6918368Y5082952D01*
X6942047Y5106631D01*
X6956418Y5128139D01*
X6969118Y5124286D01*
Y4835686D01*
X6249634D01*
X6243987Y4841333D01*
X6221934Y4850467D01*
X6198065D01*
X6176012Y4841333D01*
X6159134Y4824454D01*
X6150000Y4802402D01*
Y4778532D01*
X6159134Y4756480D01*
X6176012Y4739602D01*
X6198065Y4730467D01*
X6221934D01*
X6243987Y4739602D01*
X6260865Y4756480D01*
X6264110Y4764314D01*
X6969118D01*
Y3055000D01*
X6972611Y3037442D01*
X6982557Y3022557D01*
X7571561Y2433552D01*
Y1763718D01*
X7558861Y1762467D01*
X7553467Y1789587D01*
X7540652Y1820525D01*
X7522047Y1848369D01*
X7498369Y1872048D01*
X7470525Y1890652D01*
X7439587Y1903467D01*
X7406743Y1910000D01*
X7373257D01*
X7340413Y1903467D01*
X7309475Y1890652D01*
X7281631Y1872048D01*
X7257952Y1848369D01*
X7239348Y1820525D01*
X7226533Y1789587D01*
X7220000Y1756744D01*
Y1723257D01*
X7226533Y1690413D01*
X7239348Y1659475D01*
X7257952Y1631631D01*
X7281631Y1607953D01*
X7295656Y1598582D01*
X7291804Y1585882D01*
X7135104D01*
X7117546Y1582389D01*
X7102661Y1572443D01*
X7086736Y1556518D01*
X7027266D01*
X7021196Y1559032D01*
X7017284Y1573494D01*
X7021935Y1580000D01*
X7043987Y1589134D01*
X7060865Y1606013D01*
X7070000Y1628065D01*
Y1651935D01*
X7060865Y1673987D01*
X7043987Y1690866D01*
X7021935Y1700000D01*
X6998065D01*
X6976013Y1690866D01*
X6959134Y1673987D01*
X6950000Y1651935D01*
Y1644886D01*
X6895995Y1590882D01*
X6165881D01*
Y2204119D01*
X6191029D01*
X6196013Y2199135D01*
X6218065Y2190000D01*
X6241935D01*
X6263987Y2199135D01*
X6280866Y2216013D01*
X6290000Y2238065D01*
Y2261935D01*
X6280866Y2283987D01*
X6263987Y2300866D01*
X6241935Y2310000D01*
X6218065D01*
X6196013Y2300866D01*
X6191029Y2295882D01*
X6137574D01*
X6120016Y2292389D01*
X6105131Y2282443D01*
X6087557Y2264869D01*
X6077611Y2249985D01*
X6074118Y2232426D01*
Y1590882D01*
X5644696D01*
X5641009Y1603035D01*
X5648369Y1607953D01*
X5672048Y1631631D01*
X5690652Y1659475D01*
X5703467Y1690413D01*
X5710000Y1723257D01*
Y1756744D01*
X5703467Y1789587D01*
X5690652Y1820525D01*
X5672048Y1848369D01*
X5648369Y1872048D01*
X5620525Y1890652D01*
X5589587Y1903467D01*
X5556744Y1910000D01*
X5523257D01*
X5490413Y1903467D01*
X5459475Y1890652D01*
X5431632Y1872048D01*
X5407953Y1848369D01*
X5389348Y1820525D01*
X5376533Y1789587D01*
X5370000Y1756744D01*
Y1723257D01*
X5376533Y1690413D01*
X5389348Y1659475D01*
X5407953Y1631631D01*
X5431632Y1607953D01*
X5438991Y1603035D01*
X5435305Y1590882D01*
X4345882D01*
Y2204119D01*
X4361029D01*
X4366013Y2199135D01*
X4388065Y2190000D01*
X4411935D01*
X4433987Y2199135D01*
X4450865Y2216013D01*
X4460000Y2238065D01*
Y2261935D01*
X4450865Y2283987D01*
X4433987Y2300866D01*
X4411935Y2310000D01*
X4388065D01*
X4366013Y2300866D01*
X4361029Y2295882D01*
X4317574D01*
X4300016Y2292389D01*
X4285131Y2282443D01*
X4267557Y2264869D01*
X4257611Y2249985D01*
X4254118Y2232426D01*
Y1590882D01*
X3794695D01*
X3791009Y1603035D01*
X3798368Y1607953D01*
X3822047Y1631631D01*
X3840652Y1659475D01*
X3853467Y1690413D01*
X3860000Y1723257D01*
Y1756744D01*
X3853467Y1789587D01*
X3840652Y1820525D01*
X3822047Y1848369D01*
X3798368Y1872048D01*
X3770525Y1890652D01*
X3739587Y1903467D01*
X3706743Y1910000D01*
X3673256D01*
X3640413Y1903467D01*
X3609475Y1890652D01*
X3581631Y1872048D01*
X3557952Y1848369D01*
X3539348Y1820525D01*
X3526533Y1789587D01*
X3520000Y1756744D01*
Y1723257D01*
X3526533Y1690413D01*
X3539348Y1659475D01*
X3557952Y1631631D01*
X3581631Y1607953D01*
X3588991Y1603035D01*
X3585304Y1590882D01*
X2593294D01*
X2495881Y1688294D01*
Y2180995D01*
X2517688Y2202801D01*
X2522346D01*
X2526013Y2199135D01*
X2548065Y2190000D01*
X2571935D01*
X2593987Y2199135D01*
X2610865Y2216013D01*
X2620000Y2238065D01*
Y2261935D01*
X2610865Y2283987D01*
X2593987Y2300866D01*
X2571935Y2310000D01*
X2548065D01*
X2526013Y2300866D01*
X2519711Y2294564D01*
X2498683D01*
X2481125Y2291072D01*
X2466240Y2281126D01*
X2417557Y2232443D01*
X2407611Y2217558D01*
X2404118Y2200000D01*
Y1669290D01*
X2407611Y1651731D01*
X2417557Y1636846D01*
X2451788Y1602615D01*
X2446928Y1590882D01*
X1944695D01*
X1941009Y1603035D01*
X1948368Y1607953D01*
X1972047Y1631631D01*
X1990652Y1659475D01*
X2003467Y1690413D01*
X2010000Y1723257D01*
Y1756744D01*
X2003467Y1789587D01*
X1990652Y1820525D01*
X1972047Y1848369D01*
X1948368Y1872048D01*
X1920525Y1890652D01*
X1889587Y1903467D01*
X1856743Y1910000D01*
X1823256D01*
X1790413Y1903467D01*
X1759475Y1890652D01*
X1731631Y1872048D01*
X1707952Y1848369D01*
X1689348Y1820525D01*
X1676533Y1789587D01*
X1670000Y1756744D01*
Y1723257D01*
X1676533Y1690413D01*
X1689348Y1659475D01*
X1707952Y1631631D01*
X1731631Y1607953D01*
X1738991Y1603035D01*
X1735304Y1590882D01*
X1564004D01*
X865881Y2289005D01*
Y4536143D01*
X1008857Y4679118D01*
X1091178D01*
X1092018Y4677090D01*
X1107245Y4657245D01*
X1127090Y4642018D01*
X1150200Y4632445D01*
X1175000Y4629180D01*
X1275000D01*
X1299800Y4632445D01*
X1322910Y4642018D01*
X1342755Y4657245D01*
X1357982Y4677090D01*
X1367555Y4700200D01*
X1370820Y4725000D01*
X1367555Y4749800D01*
X1357982Y4772910D01*
X1347466Y4786614D01*
X1353729Y4799314D01*
X1496271D01*
X1503281Y4787589D01*
X1492018Y4772910D01*
X1482445Y4749800D01*
X1479180Y4725000D01*
X1482445Y4700200D01*
X1492018Y4677090D01*
X1507245Y4657245D01*
X1527090Y4642018D01*
X1550200Y4632445D01*
X1575000Y4629180D01*
X1675000D01*
X1699800Y4632445D01*
X1722910Y4642018D01*
X1742754Y4657245D01*
X1757982Y4677090D01*
X1767555Y4700200D01*
X1770819Y4725000D01*
X1767555Y4749800D01*
X1757982Y4772910D01*
X1742754Y4792754D01*
X1722910Y4807982D01*
X1699800Y4817554D01*
X1675000Y4820819D01*
X1579334D01*
X1577273Y4823905D01*
X1540944Y4860234D01*
X1529367Y4867969D01*
X1515710Y4870686D01*
X1023047D01*
X1017787Y4883386D01*
X1093663Y4959262D01*
X1106336Y4958431D01*
X1107245Y4957245D01*
X1127090Y4942018D01*
X1150200Y4932445D01*
X1175000Y4929180D01*
X1275000D01*
X1299800Y4932445D01*
X1322910Y4942018D01*
X1342755Y4957245D01*
X1357982Y4977090D01*
X1367555Y5000200D01*
X1370820Y5025000D01*
X1367555Y5049800D01*
X1357982Y5072910D01*
X1342755Y5092754D01*
X1322910Y5107982D01*
X1299800Y5117554D01*
X1275000Y5120819D01*
X1175000D01*
X1150200Y5117554D01*
X1127090Y5107982D01*
X1107245Y5092754D01*
X1092018Y5072910D01*
X1082445Y5049800D01*
X1080842Y5037618D01*
X1073458Y5036149D01*
X1061881Y5028414D01*
X376127Y4342660D01*
X368391Y4331083D01*
X365674Y4317426D01*
Y4290527D01*
X359134Y4283987D01*
X350000Y4261935D01*
Y4238065D01*
X359134Y4216013D01*
X376013Y4199134D01*
X398065Y4190000D01*
X421935D01*
X443987Y4199134D01*
X460865Y4216013D01*
X470000Y4238065D01*
Y4258554D01*
X478035Y4265242D01*
X481733Y4266765D01*
X498065Y4260000D01*
X521935D01*
X543987Y4269134D01*
X560866Y4286013D01*
X570000Y4308065D01*
Y4331935D01*
X567775Y4337307D01*
X762385Y4531918D01*
X774118Y4527057D01*
Y2270000D01*
X777611Y2252442D01*
X787557Y2237557D01*
X1512557Y1512557D01*
X1527441Y1502611D01*
X1545000Y1499119D01*
X1845694D01*
X1846694Y1486419D01*
X1808675Y1480397D01*
X1750292Y1461427D01*
X1695595Y1433558D01*
X1645932Y1397475D01*
X1602524Y1354068D01*
X1566442Y1304405D01*
X1538572Y1249708D01*
X1519603Y1191325D01*
X1510000Y1130694D01*
Y1069306D01*
X1519603Y1008675D01*
X1538572Y950292D01*
X1566442Y895596D01*
X1602524Y845932D01*
X1645932Y802525D01*
X1695595Y766442D01*
X1750292Y738573D01*
X1808675Y719603D01*
X1869306Y710000D01*
X1930693D01*
X1991325Y719603D01*
X2049708Y738573D01*
X2104404Y766442D01*
X2154068Y802525D01*
X2197475Y845932D01*
X2233558Y895596D01*
X2261427Y950292D01*
X2280397Y1008675D01*
X2290000Y1069306D01*
Y1130694D01*
X2280397Y1191325D01*
X2261427Y1249708D01*
X2233558Y1304405D01*
X2197475Y1354068D01*
X2154068Y1397475D01*
X2104404Y1433558D01*
X2049708Y1461427D01*
X1991325Y1480397D01*
X1953306Y1486419D01*
X1954305Y1499119D01*
X3019286D01*
X3023139Y1486419D01*
X3001631Y1472048D01*
X2977952Y1448369D01*
X2959348Y1420525D01*
X2946533Y1389587D01*
X2940000Y1356744D01*
Y1323257D01*
X2946533Y1290413D01*
X2959348Y1259475D01*
X2977952Y1231632D01*
X3001631Y1207953D01*
X3029475Y1189348D01*
X3060412Y1176533D01*
X3093256Y1170000D01*
X3126743D01*
X3159587Y1176533D01*
X3190525Y1189348D01*
X3218368Y1207953D01*
X3242047Y1231632D01*
X3260652Y1259475D01*
X3273466Y1290413D01*
X3280000Y1323257D01*
Y1356744D01*
X3273466Y1389587D01*
X3260652Y1420525D01*
X3242047Y1448369D01*
X3218368Y1472048D01*
X3196861Y1486419D01*
X3200713Y1499119D01*
X3695694D01*
X3696693Y1486419D01*
X3658674Y1480397D01*
X3600292Y1461427D01*
X3545595Y1433558D01*
X3495932Y1397475D01*
X3452524Y1354068D01*
X3416442Y1304405D01*
X3388572Y1249708D01*
X3369603Y1191325D01*
X3360000Y1130694D01*
Y1069306D01*
X3369603Y1008675D01*
X3388572Y950292D01*
X3416442Y895596D01*
X3452524Y845932D01*
X3495932Y802525D01*
X3545595Y766442D01*
X3600292Y738573D01*
X3658674Y719603D01*
X3719306Y710000D01*
X3780693D01*
X3841325Y719603D01*
X3899708Y738573D01*
X3954404Y766442D01*
X4004068Y802525D01*
X4047475Y845932D01*
X4083557Y895596D01*
X4111427Y950292D01*
X4130397Y1008675D01*
X4140000Y1069306D01*
Y1130694D01*
X4130397Y1191325D01*
X4111427Y1249708D01*
X4083557Y1304405D01*
X4047475Y1354068D01*
X4004068Y1397475D01*
X3954404Y1433558D01*
X3899708Y1461427D01*
X3841325Y1480397D01*
X3803306Y1486419D01*
X3804305Y1499119D01*
X4869286D01*
X4873139Y1486419D01*
X4851631Y1472048D01*
X4827952Y1448369D01*
X4809348Y1420525D01*
X4796533Y1389587D01*
X4790000Y1356744D01*
Y1323257D01*
X4796533Y1290413D01*
X4809348Y1259475D01*
X4827952Y1231632D01*
X4851631Y1207953D01*
X4879475Y1189348D01*
X4910413Y1176533D01*
X4943257Y1170000D01*
X4976743D01*
X5009587Y1176533D01*
X5040525Y1189348D01*
X5068369Y1207953D01*
X5092047Y1231632D01*
X5110652Y1259475D01*
X5123467Y1290413D01*
X5130000Y1323257D01*
Y1356744D01*
X5123467Y1389587D01*
X5110652Y1420525D01*
X5092047Y1448369D01*
X5068369Y1472048D01*
X5046861Y1486419D01*
X5050714Y1499119D01*
X5545694D01*
X5546694Y1486419D01*
X5508675Y1480397D01*
X5450292Y1461427D01*
X5395596Y1433558D01*
X5345932Y1397475D01*
X5302525Y1354068D01*
X5266442Y1304405D01*
X5238573Y1249708D01*
X5219603Y1191325D01*
X5210000Y1130694D01*
Y1069306D01*
X5219603Y1008675D01*
X5238573Y950292D01*
X5266442Y895596D01*
X5302525Y845932D01*
X5345932Y802525D01*
X5395596Y766442D01*
X5450292Y738573D01*
X5508675Y719603D01*
X5569306Y710000D01*
X5630694D01*
X5691325Y719603D01*
X5749708Y738573D01*
X5804404Y766442D01*
X5854068Y802525D01*
X5897475Y845932D01*
X5933558Y895596D01*
X5961427Y950292D01*
X5980397Y1008675D01*
X5990000Y1069306D01*
Y1130694D01*
X5980397Y1191325D01*
X5961427Y1249708D01*
X5933558Y1304405D01*
X5897475Y1354068D01*
X5854068Y1397475D01*
X5804404Y1433558D01*
X5749708Y1461427D01*
X5691325Y1480397D01*
X5653306Y1486419D01*
X5654306Y1499119D01*
X6719286D01*
X6723139Y1486419D01*
X6701631Y1472048D01*
X6677952Y1448369D01*
X6659348Y1420525D01*
X6646533Y1389587D01*
X6640000Y1356744D01*
Y1323257D01*
X6646533Y1290413D01*
X6659348Y1259475D01*
X6677952Y1231632D01*
X6701631Y1207953D01*
X6729475Y1189348D01*
X6760413Y1176533D01*
X6793256Y1170000D01*
X6826743D01*
X6859587Y1176533D01*
X6890525Y1189348D01*
X6918368Y1207953D01*
X6942047Y1231632D01*
X6960652Y1259475D01*
X6973467Y1290413D01*
X6980000Y1323257D01*
Y1356744D01*
X6973467Y1389587D01*
X6960652Y1420525D01*
X6942047Y1448369D01*
X6918368Y1472048D01*
X6896861Y1486419D01*
X6900713Y1499119D01*
X6915000D01*
X6922404Y1500591D01*
X6935104Y1492961D01*
X6944238Y1470909D01*
X6961117Y1454030D01*
X6983169Y1444896D01*
X7007039D01*
X7029091Y1454030D01*
X7039815Y1464754D01*
X7105740D01*
X7123299Y1468247D01*
X7138184Y1478193D01*
X7154109Y1494118D01*
X7364123D01*
X7365123Y1481418D01*
X7358675Y1480397D01*
X7300292Y1461427D01*
X7245595Y1433558D01*
X7195932Y1397475D01*
X7152524Y1354068D01*
X7116442Y1304405D01*
X7088573Y1249708D01*
X7069603Y1191325D01*
X7060000Y1130694D01*
Y1069306D01*
X7069603Y1008675D01*
X7088573Y950292D01*
X7116442Y895596D01*
X7152524Y845932D01*
X7195932Y802525D01*
X7245595Y766442D01*
X7300292Y738573D01*
X7358675Y719603D01*
X7419306Y710000D01*
X7480693D01*
X7541325Y719603D01*
X7599708Y738573D01*
X7654404Y766442D01*
X7704068Y802525D01*
X7747475Y845932D01*
X7783558Y895596D01*
X7811427Y950292D01*
X7830397Y1008675D01*
X7840000Y1069306D01*
Y1130694D01*
X7830397Y1191325D01*
X7811427Y1249708D01*
X7783558Y1304405D01*
X7747475Y1354068D01*
X7704068Y1397475D01*
X7654404Y1433558D01*
X7599708Y1461427D01*
X7541325Y1480397D01*
X7492096Y1488194D01*
X7489173Y1501515D01*
X7498214Y1507557D01*
X7649886Y1659229D01*
X7659832Y1674114D01*
X7663325Y1691672D01*
Y2452557D01*
X7659832Y2470115D01*
X7649886Y2485000D01*
X7060881Y3074005D01*
Y4530304D01*
X7073034Y4533991D01*
X7077952Y4526631D01*
X7101631Y4502952D01*
X7129474Y4484348D01*
X7160412Y4471533D01*
X7193256Y4465000D01*
X7226743D01*
X7259587Y4471533D01*
X7290525Y4484348D01*
X7318368Y4502952D01*
X7342047Y4526631D01*
X7360652Y4554475D01*
X7373466Y4585413D01*
X7379999Y4618256D01*
Y4651743D01*
X7373466Y4684587D01*
X7360652Y4715525D01*
X7342047Y4743368D01*
X7318368Y4767047D01*
X7290525Y4785652D01*
X7259587Y4798467D01*
X7226743Y4805000D01*
X7193256D01*
X7160412Y4798467D01*
X7129474Y4785652D01*
X7101631Y4767047D01*
X7077952Y4743368D01*
X7073034Y4736009D01*
X7060881Y4739695D01*
Y4800000D01*
Y5169418D01*
X7073581Y5171429D01*
X7088572Y5125292D01*
X7116442Y5070595D01*
X7152524Y5020932D01*
X7195932Y4977524D01*
X7245595Y4941442D01*
X7300291Y4913573D01*
X7358674Y4894603D01*
X7419306Y4885000D01*
X7480693D01*
X7541325Y4894603D01*
X7599708Y4913573D01*
X7654404Y4941442D01*
X7704068Y4977524D01*
X7747475Y5020932D01*
X7783557Y5070595D01*
X7811427Y5125292D01*
X7830397Y5183675D01*
X7840000Y5244306D01*
Y5305693D01*
X7830397Y5366325D01*
X7811427Y5424708D01*
X7783557Y5479404D01*
X7747475Y5529068D01*
X7704068Y5572475D01*
X7654404Y5608558D01*
X7599708Y5636427D01*
X7541325Y5655397D01*
X7480693Y5665000D01*
X7419306D01*
X7358674Y5655397D01*
X7300291Y5636427D01*
X7245595Y5608558D01*
X7195932Y5572475D01*
X7152524Y5529068D01*
X7116442Y5479404D01*
X7088572Y5424708D01*
X7073581Y5378570D01*
X7060881Y5380582D01*
Y5886220D01*
X7592030Y6417368D01*
X7601976Y6432253D01*
X7605468Y6449811D01*
Y6615246D01*
X7908325Y6918102D01*
X7918270Y6932987D01*
X7921763Y6950545D01*
Y7293742D01*
X7934463Y7296268D01*
X7939348Y7284475D01*
X7957952Y7256632D01*
X7981631Y7232953D01*
X8009474Y7214348D01*
X8040412Y7201533D01*
X8073256Y7195000D01*
X8106743D01*
X8139587Y7201533D01*
X8170525Y7214348D01*
X8198368Y7232953D01*
X8222047Y7256632D01*
X8240652Y7284475D01*
X8253466Y7315413D01*
X8259999Y7348257D01*
Y7381744D01*
X8253466Y7414587D01*
X8240652Y7445525D01*
X8222047Y7473369D01*
X8198368Y7497048D01*
X8170525Y7515652D01*
X8139587Y7528467D01*
X8106743Y7535000D01*
X8073256D01*
X8040412Y7528467D01*
X8009474Y7515652D01*
X7981631Y7497048D01*
X7957952Y7473369D01*
X7939348Y7445525D01*
X7934463Y7433733D01*
X7921763Y7436259D01*
Y8454119D01*
X7918270Y8471677D01*
X7908325Y8486562D01*
X7832443Y8562443D01*
X7817558Y8572389D01*
X7800000Y8575882D01*
X7504306D01*
X7503306Y8588582D01*
X7541325Y8594603D01*
X7599708Y8613573D01*
X7654404Y8641442D01*
X7704068Y8677525D01*
X7747475Y8720932D01*
X7783558Y8770596D01*
X7811427Y8825292D01*
X7830397Y8883675D01*
X7840000Y8944306D01*
Y9005694D01*
X7830397Y9066325D01*
X7811427Y9124708D01*
X7783558Y9179405D01*
X7747475Y9229068D01*
X7704068Y9272475D01*
X7654404Y9308558D01*
X7599708Y9336427D01*
X7541325Y9355397D01*
X7480693Y9365000D01*
D02*
G37*
G36*
X8106743Y8905000D02*
X8073256D01*
X8040413Y8898467D01*
X8009475Y8885652D01*
X7981631Y8867048D01*
X7957952Y8843369D01*
X7939348Y8815525D01*
X7926533Y8784587D01*
X7920000Y8751743D01*
Y8718257D01*
X7926533Y8685413D01*
X7939348Y8654475D01*
X7957952Y8626631D01*
X7981631Y8602953D01*
X8009475Y8584348D01*
X8040413Y8571533D01*
X8073256Y8565000D01*
X8106743D01*
X8139587Y8571533D01*
X8170525Y8584348D01*
X8198368Y8602953D01*
X8222047Y8626631D01*
X8240652Y8654475D01*
X8253467Y8685413D01*
X8260000Y8718257D01*
Y8751743D01*
X8253467Y8784587D01*
X8240652Y8815525D01*
X8222047Y8843369D01*
X8198368Y8867048D01*
X8170525Y8885652D01*
X8139587Y8898467D01*
X8106743Y8905000D01*
D02*
G37*
G36*
X4406743D02*
X4373256D01*
X4340412Y8898467D01*
X4309474Y8885652D01*
X4281631Y8867048D01*
X4257952Y8843369D01*
X4239348Y8815525D01*
X4226533Y8784587D01*
X4220000Y8751743D01*
Y8718257D01*
X4226533Y8685413D01*
X4239348Y8654475D01*
X4257952Y8626631D01*
X4281631Y8602953D01*
X4309474Y8584348D01*
X4340412Y8571533D01*
X4373256Y8565000D01*
X4406743D01*
X4439587Y8571533D01*
X4470525Y8584348D01*
X4498368Y8602953D01*
X4522047Y8626631D01*
X4540652Y8654475D01*
X4553466Y8685413D01*
X4560000Y8718257D01*
Y8751743D01*
X4553466Y8784587D01*
X4540652Y8815525D01*
X4522047Y8843369D01*
X4498368Y8867048D01*
X4470525Y8885652D01*
X4439587Y8898467D01*
X4406743Y8905000D01*
D02*
G37*
G36*
X1976743Y8530000D02*
X1943256D01*
X1910412Y8523467D01*
X1879475Y8510652D01*
X1851631Y8492048D01*
X1827952Y8468369D01*
X1809348Y8440525D01*
X1796533Y8409587D01*
X1790000Y8376743D01*
Y8343257D01*
X1796533Y8310413D01*
X1809348Y8279475D01*
X1827952Y8251631D01*
X1851631Y8227953D01*
X1879475Y8209348D01*
X1910412Y8196533D01*
X1943256Y8190000D01*
X1976743D01*
X2009587Y8196533D01*
X2040525Y8209348D01*
X2068368Y8227953D01*
X2092047Y8251631D01*
X2110652Y8279475D01*
X2123466Y8310413D01*
X2130000Y8343257D01*
Y8376743D01*
X2123466Y8409587D01*
X2110652Y8440525D01*
X2092047Y8468369D01*
X2068368Y8492048D01*
X2040525Y8510652D01*
X2009587Y8523467D01*
X1976743Y8530000D01*
D02*
G37*
G36*
X5676743Y8505000D02*
X5643256D01*
X5610413Y8498467D01*
X5579475Y8485652D01*
X5551631Y8467048D01*
X5527952Y8443369D01*
X5509348Y8415525D01*
X5496533Y8384587D01*
X5490000Y8351744D01*
Y8318257D01*
X5496533Y8285413D01*
X5509348Y8254475D01*
X5527952Y8226632D01*
X5551631Y8202953D01*
X5579475Y8184348D01*
X5610413Y8171533D01*
X5643256Y8165000D01*
X5676743D01*
X5709587Y8171533D01*
X5740525Y8184348D01*
X5768368Y8202953D01*
X5792047Y8226632D01*
X5810652Y8254475D01*
X5823467Y8285413D01*
X5830000Y8318257D01*
Y8351744D01*
X5823467Y8384587D01*
X5810652Y8415525D01*
X5792047Y8443369D01*
X5768368Y8467048D01*
X5740525Y8485652D01*
X5709587Y8498467D01*
X5676743Y8505000D01*
D02*
G37*
G36*
X3826743D02*
X3793256D01*
X3760412Y8498467D01*
X3729474Y8485652D01*
X3701631Y8467048D01*
X3677952Y8443369D01*
X3659348Y8415525D01*
X3646533Y8384587D01*
X3640000Y8351744D01*
Y8318257D01*
X3646533Y8285413D01*
X3659348Y8254475D01*
X3677952Y8226632D01*
X3701631Y8202953D01*
X3729474Y8184348D01*
X3760412Y8171533D01*
X3793256Y8165000D01*
X3826743D01*
X3859587Y8171533D01*
X3890525Y8184348D01*
X3918368Y8202953D01*
X3942047Y8226632D01*
X3960651Y8254475D01*
X3973466Y8285413D01*
X3979999Y8318257D01*
Y8351744D01*
X3973466Y8384587D01*
X3960651Y8415525D01*
X3942047Y8443369D01*
X3918368Y8467048D01*
X3890525Y8485652D01*
X3859587Y8498467D01*
X3826743Y8505000D01*
D02*
G37*
G36*
X4769000Y7975744D02*
X4729501D01*
Y7887496D01*
X4807744D01*
Y7937000D01*
X4804795Y7951827D01*
X4796396Y7964396D01*
X4783827Y7972795D01*
X4769000Y7975744D01*
D02*
G37*
G36*
X4704502D02*
X4665000D01*
X4650173Y7972795D01*
X4637604Y7964396D01*
X4629205Y7951827D01*
X4626256Y7937000D01*
Y7887496D01*
X4704502D01*
Y7975744D01*
D02*
G37*
G36*
X1205216Y7995273D02*
X1186784D01*
X1168981Y7990502D01*
X1153019Y7981287D01*
X1139986Y7968254D01*
X1130770Y7952292D01*
X1126000Y7934488D01*
Y7916057D01*
X1130770Y7898254D01*
X1139986Y7882292D01*
X1153019Y7869259D01*
X1168981Y7860043D01*
X1186784Y7855273D01*
X1205216D01*
X1223019Y7860043D01*
X1238981Y7869259D01*
X1252014Y7882292D01*
X1261229Y7898254D01*
X1266000Y7916057D01*
Y7934488D01*
X1261229Y7952292D01*
X1252014Y7968254D01*
X1238981Y7981287D01*
X1223019Y7990502D01*
X1205216Y7995273D01*
D02*
G37*
G36*
X6399144Y8003733D02*
X6379144D01*
X6356955Y8000812D01*
X6336278Y7992247D01*
X6318522Y7978623D01*
X6304897Y7960866D01*
X6296332Y7940189D01*
X6293411Y7918000D01*
X6296332Y7895810D01*
X6304897Y7875133D01*
X6318522Y7857377D01*
X6336278Y7843753D01*
X6356955Y7835188D01*
X6379144Y7832267D01*
X6399144D01*
X6421334Y7835188D01*
X6442011Y7843753D01*
X6459767Y7857377D01*
X6473392Y7875133D01*
X6481957Y7895810D01*
X6484878Y7918000D01*
X6481957Y7940189D01*
X6473392Y7960866D01*
X6459767Y7978623D01*
X6442011Y7992247D01*
X6421334Y8000812D01*
X6399144Y8003733D01*
D02*
G37*
G36*
X5225000Y7970733D02*
X5202811Y7967812D01*
X5182133Y7959247D01*
X5164377Y7945623D01*
X5150753Y7927867D01*
X5142188Y7907189D01*
X5139267Y7885000D01*
Y7865000D01*
X5142188Y7842811D01*
X5150753Y7822133D01*
X5164377Y7804377D01*
X5182133Y7790753D01*
X5202811Y7782188D01*
X5225000Y7779267D01*
X5247189Y7782188D01*
X5267867Y7790753D01*
X5285623Y7804377D01*
X5299247Y7822133D01*
X5307812Y7842811D01*
X5310733Y7865000D01*
Y7885000D01*
X5307812Y7907189D01*
X5299247Y7927867D01*
X5285623Y7945623D01*
X5267867Y7959247D01*
X5247189Y7967812D01*
X5225000Y7970733D01*
D02*
G37*
G36*
X4971000D02*
X4948811Y7967812D01*
X4928133Y7959247D01*
X4910377Y7945623D01*
X4896753Y7927867D01*
X4888188Y7907189D01*
X4885267Y7885000D01*
Y7865000D01*
X4888188Y7842811D01*
X4896753Y7822133D01*
X4910377Y7804377D01*
X4928133Y7790753D01*
X4948811Y7782188D01*
X4971000Y7779267D01*
X4993189Y7782188D01*
X5013867Y7790753D01*
X5031623Y7804377D01*
X5045247Y7822133D01*
X5053812Y7842811D01*
X5056733Y7865000D01*
Y7885000D01*
X5053812Y7907189D01*
X5045247Y7927867D01*
X5031623Y7945623D01*
X5013867Y7959247D01*
X4993189Y7967812D01*
X4971000Y7970733D01*
D02*
G37*
G36*
X4807744Y7862496D02*
X4729501D01*
Y7774256D01*
X4769000D01*
X4783827Y7777205D01*
X4796396Y7785604D01*
X4804795Y7798173D01*
X4807744Y7813000D01*
Y7862496D01*
D02*
G37*
G36*
X4704502D02*
X4626256D01*
Y7813000D01*
X4629205Y7798173D01*
X4637604Y7785604D01*
X4650173Y7777205D01*
X4665000Y7774256D01*
X4704502D01*
Y7862496D01*
D02*
G37*
G36*
X1290000Y7726135D02*
X1252500D01*
Y7637773D01*
X1389217D01*
X1387426Y7651378D01*
X1377350Y7675704D01*
X1361321Y7696593D01*
X1340431Y7712622D01*
X1316105Y7722699D01*
X1290000Y7726135D01*
D02*
G37*
G36*
X1227500D02*
X1190000D01*
X1163895Y7722699D01*
X1139569Y7712622D01*
X1118679Y7696593D01*
X1102650Y7675704D01*
X1092574Y7651378D01*
X1090783Y7637773D01*
X1227500D01*
Y7726135D01*
D02*
G37*
G36*
X7526743Y7935000D02*
X7493256D01*
X7460412Y7928467D01*
X7429474Y7915652D01*
X7401631Y7897048D01*
X7377952Y7873369D01*
X7359347Y7845525D01*
X7346533Y7814587D01*
X7340000Y7781744D01*
Y7748257D01*
X7346533Y7715413D01*
X7359347Y7684475D01*
X7377952Y7656632D01*
X7401631Y7632953D01*
X7429474Y7614348D01*
X7460412Y7601533D01*
X7493256Y7595000D01*
X7526743D01*
X7559587Y7601533D01*
X7590525Y7614348D01*
X7618368Y7632953D01*
X7642047Y7656632D01*
X7660651Y7684475D01*
X7673466Y7715413D01*
X7679999Y7748257D01*
Y7781744D01*
X7673466Y7814587D01*
X7660651Y7845525D01*
X7642047Y7873369D01*
X7618368Y7897048D01*
X7590525Y7915652D01*
X7559587Y7928467D01*
X7526743Y7935000D01*
D02*
G37*
G36*
X6399144Y7749733D02*
X6379144D01*
X6356955Y7746812D01*
X6336278Y7738247D01*
X6318522Y7724623D01*
X6304897Y7706866D01*
X6296332Y7686189D01*
X6293411Y7664000D01*
X6296332Y7641810D01*
X6304897Y7621133D01*
X6318522Y7603377D01*
X6336278Y7589753D01*
X6356955Y7581188D01*
X6379144Y7578267D01*
X6399144D01*
X6421334Y7581188D01*
X6442011Y7589753D01*
X6459767Y7603377D01*
X6473392Y7621133D01*
X6481957Y7641810D01*
X6484878Y7664000D01*
X6481957Y7686189D01*
X6473392Y7706866D01*
X6459767Y7724623D01*
X6442011Y7738247D01*
X6421334Y7746812D01*
X6399144Y7749733D01*
D02*
G37*
G36*
X1750000Y7720958D02*
X1530000D01*
X1516343Y7718242D01*
X1504766Y7710506D01*
X1497031Y7698929D01*
X1494314Y7685273D01*
Y7565273D01*
X1497031Y7551617D01*
X1504766Y7540039D01*
X1516343Y7532304D01*
X1530000Y7529587D01*
X1750000D01*
X1763656Y7532304D01*
X1775233Y7540039D01*
X1782969Y7551617D01*
X1785686Y7565273D01*
Y7685273D01*
X1782969Y7698929D01*
X1775233Y7710506D01*
X1763656Y7718242D01*
X1750000Y7720958D01*
D02*
G37*
G36*
X1389217Y7612773D02*
X1252500D01*
Y7524410D01*
X1290000D01*
X1316105Y7527847D01*
X1340431Y7537923D01*
X1361321Y7553952D01*
X1377350Y7574841D01*
X1387426Y7599168D01*
X1389217Y7612773D01*
D02*
G37*
G36*
X1227500D02*
X1090783D01*
X1092574Y7599168D01*
X1102650Y7574841D01*
X1118679Y7553952D01*
X1139569Y7537923D01*
X1163895Y7527847D01*
X1190000Y7524410D01*
X1227500D01*
Y7612773D01*
D02*
G37*
G36*
X6451144Y7500744D02*
X6401643D01*
Y7422500D01*
X6489889D01*
Y7462000D01*
X6486940Y7476827D01*
X6478541Y7489396D01*
X6465971Y7497795D01*
X6451144Y7500744D01*
D02*
G37*
G36*
X6376643D02*
X6327145D01*
X6312318Y7497795D01*
X6299748Y7489396D01*
X6291349Y7476827D01*
X6288400Y7462000D01*
Y7422500D01*
X6376643D01*
Y7500744D01*
D02*
G37*
G36*
X1290000Y7426135D02*
X1252500D01*
Y7337772D01*
X1389217D01*
X1387426Y7351378D01*
X1377350Y7375704D01*
X1361321Y7396593D01*
X1340431Y7412622D01*
X1316105Y7422698D01*
X1290000Y7426135D01*
D02*
G37*
G36*
X1227500D02*
X1190000D01*
X1163895Y7422698D01*
X1139569Y7412622D01*
X1118679Y7396593D01*
X1102650Y7375704D01*
X1092574Y7351378D01*
X1090783Y7337772D01*
X1227500D01*
Y7426135D01*
D02*
G37*
G36*
X6489889Y7397500D02*
X6401643D01*
Y7319256D01*
X6451144D01*
X6465971Y7322205D01*
X6478541Y7330604D01*
X6486940Y7343173D01*
X6489889Y7358000D01*
Y7397500D01*
D02*
G37*
G36*
X6376643D02*
X6288400D01*
Y7358000D01*
X6291349Y7343173D01*
X6299748Y7330604D01*
X6312318Y7322205D01*
X6327145Y7319256D01*
X6376643D01*
Y7397500D01*
D02*
G37*
G36*
X2684000Y7390744D02*
X2634500D01*
Y7312500D01*
X2722744D01*
Y7352000D01*
X2719795Y7366827D01*
X2711396Y7379396D01*
X2698827Y7387795D01*
X2684000Y7390744D01*
D02*
G37*
G36*
X2609500D02*
X2560000D01*
X2545173Y7387795D01*
X2532604Y7379396D01*
X2524205Y7366827D01*
X2521256Y7352000D01*
Y7312500D01*
X2609500D01*
Y7390744D01*
D02*
G37*
G36*
X4773000Y7400744D02*
X4733501D01*
Y7312498D01*
X4811744D01*
Y7362000D01*
X4808795Y7376826D01*
X4800396Y7389396D01*
X4787827Y7397795D01*
X4773000Y7400744D01*
D02*
G37*
G36*
X4708502D02*
X4669000D01*
X4654173Y7397795D01*
X4641604Y7389396D01*
X4633205Y7376826D01*
X4630256Y7362000D01*
Y7312498D01*
X4708502D01*
Y7400744D01*
D02*
G37*
G36*
X1690000Y7421092D02*
X1590000D01*
X1565200Y7417827D01*
X1542090Y7408255D01*
X1522245Y7393027D01*
X1507018Y7373182D01*
X1497445Y7350072D01*
X1494180Y7325273D01*
X1497445Y7300473D01*
X1507018Y7277363D01*
X1522245Y7257518D01*
X1542090Y7242291D01*
X1565200Y7232718D01*
X1590000Y7229453D01*
X1690000D01*
X1714800Y7232718D01*
X1737910Y7242291D01*
X1757754Y7257518D01*
X1772982Y7277363D01*
X1782554Y7300473D01*
X1785819Y7325273D01*
X1782554Y7350072D01*
X1772982Y7373182D01*
X1757754Y7393027D01*
X1737910Y7408255D01*
X1714800Y7417827D01*
X1690000Y7421092D01*
D02*
G37*
G36*
X1389217Y7312773D02*
X1252500D01*
Y7224410D01*
X1290000D01*
X1316105Y7227847D01*
X1340431Y7237923D01*
X1361321Y7253952D01*
X1377350Y7274841D01*
X1387426Y7299168D01*
X1389217Y7312773D01*
D02*
G37*
G36*
X1227500D02*
X1090783D01*
X1092574Y7299168D01*
X1102650Y7274841D01*
X1118679Y7253952D01*
X1139569Y7237923D01*
X1163895Y7227847D01*
X1190000Y7224410D01*
X1227500D01*
Y7312773D01*
D02*
G37*
G36*
X2722744Y7287500D02*
X2634500D01*
Y7209256D01*
X2684000D01*
X2698827Y7212205D01*
X2711396Y7220604D01*
X2719795Y7233173D01*
X2722744Y7248000D01*
Y7287500D01*
D02*
G37*
G36*
X2609500D02*
X2521256D01*
Y7248000D01*
X2524205Y7233173D01*
X2532604Y7220604D01*
X2545173Y7212205D01*
X2560000Y7209256D01*
X2609500D01*
Y7287500D01*
D02*
G37*
G36*
X5229000Y7395733D02*
X5206811Y7392812D01*
X5186133Y7384247D01*
X5168377Y7370623D01*
X5154753Y7352867D01*
X5146188Y7332189D01*
X5143267Y7310000D01*
Y7290000D01*
X5146188Y7267810D01*
X5154753Y7247133D01*
X5168377Y7229377D01*
X5186133Y7215753D01*
X5206811Y7207188D01*
X5229000Y7204267D01*
X5251189Y7207188D01*
X5271867Y7215753D01*
X5289623Y7229377D01*
X5303247Y7247133D01*
X5311812Y7267810D01*
X5314733Y7290000D01*
Y7310000D01*
X5311812Y7332189D01*
X5303247Y7352867D01*
X5289623Y7370623D01*
X5271867Y7384247D01*
X5251189Y7392812D01*
X5229000Y7395733D01*
D02*
G37*
G36*
X4811744Y7287498D02*
X4733501D01*
Y7199256D01*
X4773000D01*
X4787827Y7202205D01*
X4800396Y7210604D01*
X4808795Y7223173D01*
X4811744Y7238000D01*
Y7287498D01*
D02*
G37*
G36*
X4708502D02*
X4630256D01*
Y7238000D01*
X4633205Y7223173D01*
X4641604Y7210604D01*
X4654173Y7202205D01*
X4669000Y7199256D01*
X4708502D01*
Y7287498D01*
D02*
G37*
G36*
X1290000Y7126135D02*
X1252500D01*
Y7037773D01*
X1389217D01*
X1387426Y7051378D01*
X1377350Y7075704D01*
X1361321Y7096593D01*
X1340431Y7112622D01*
X1316105Y7122698D01*
X1290000Y7126135D01*
D02*
G37*
G36*
X1227500D02*
X1190000D01*
X1163895Y7122698D01*
X1139569Y7112622D01*
X1118679Y7096593D01*
X1102650Y7075704D01*
X1092574Y7051378D01*
X1090783Y7037773D01*
X1227500D01*
Y7126135D01*
D02*
G37*
G36*
X2632000Y7131734D02*
X2612000D01*
X2589811Y7128812D01*
X2569134Y7120247D01*
X2551377Y7106623D01*
X2537753Y7088867D01*
X2529188Y7068190D01*
X2526267Y7046000D01*
X2529188Y7023811D01*
X2537753Y7003134D01*
X2551377Y6985377D01*
X2569134Y6971753D01*
X2589811Y6963188D01*
X2612000Y6960267D01*
X2632000D01*
X2654190Y6963188D01*
X2674867Y6971753D01*
X2692623Y6985377D01*
X2706247Y7003134D01*
X2714812Y7023811D01*
X2717733Y7046000D01*
X2714812Y7068190D01*
X2706247Y7088867D01*
X2692623Y7106623D01*
X2674867Y7120247D01*
X2654190Y7128812D01*
X2632000Y7131734D01*
D02*
G37*
G36*
X1690000Y7121092D02*
X1590000D01*
X1565200Y7117827D01*
X1542090Y7108255D01*
X1522245Y7093027D01*
X1507018Y7073182D01*
X1497445Y7050073D01*
X1494180Y7025273D01*
X1497445Y7000473D01*
X1507018Y6977363D01*
X1522245Y6957518D01*
X1542090Y6942291D01*
X1565200Y6932718D01*
X1590000Y6929453D01*
X1690000D01*
X1714800Y6932718D01*
X1737910Y6942291D01*
X1757754Y6957518D01*
X1772982Y6977363D01*
X1782554Y7000473D01*
X1785819Y7025273D01*
X1782554Y7050073D01*
X1772982Y7073182D01*
X1757754Y7093027D01*
X1737910Y7108255D01*
X1714800Y7117827D01*
X1690000Y7121092D01*
D02*
G37*
G36*
X1389217Y7012773D02*
X1252500D01*
Y6924410D01*
X1290000D01*
X1316105Y6927847D01*
X1340431Y6937923D01*
X1361321Y6953952D01*
X1377350Y6974842D01*
X1387426Y6999168D01*
X1389217Y7012773D01*
D02*
G37*
G36*
X1227500D02*
X1090783D01*
X1092574Y6999168D01*
X1102650Y6974842D01*
X1118679Y6953952D01*
X1139569Y6937923D01*
X1163895Y6927847D01*
X1190000Y6924410D01*
X1227500D01*
Y7012773D01*
D02*
G37*
G36*
X6826743Y7235000D02*
X6793256D01*
X6760412Y7228467D01*
X6729474Y7215652D01*
X6701631Y7197048D01*
X6677952Y7173369D01*
X6659348Y7145525D01*
X6646533Y7114587D01*
X6640000Y7081744D01*
Y7048257D01*
X6646533Y7015413D01*
X6659348Y6984475D01*
X6677952Y6956632D01*
X6701631Y6932953D01*
X6729474Y6914348D01*
X6760412Y6901534D01*
X6793256Y6895000D01*
X6826743D01*
X6859587Y6901534D01*
X6890525Y6914348D01*
X6918368Y6932953D01*
X6942047Y6956632D01*
X6960652Y6984475D01*
X6973466Y7015413D01*
X6980000Y7048257D01*
Y7081744D01*
X6973466Y7114587D01*
X6960652Y7145525D01*
X6942047Y7173369D01*
X6918368Y7197048D01*
X6890525Y7215652D01*
X6859587Y7228467D01*
X6826743Y7235000D01*
D02*
G37*
G36*
X4975000Y7395733D02*
X4952811Y7392812D01*
X4932133Y7384247D01*
X4914377Y7370623D01*
X4900753Y7352867D01*
X4892188Y7332189D01*
X4889267Y7310000D01*
Y7290000D01*
X4892188Y7267810D01*
X4900753Y7247133D01*
X4914377Y7229377D01*
X4932133Y7215753D01*
X4949056Y7208743D01*
Y6754239D01*
X4936356Y6752567D01*
X4930185Y6775598D01*
X4917020Y6798401D01*
X4898401Y6817020D01*
X4875598Y6830185D01*
X4850165Y6837000D01*
X4823835D01*
X4821248Y6836307D01*
X4808548Y6846052D01*
Y6857453D01*
X4799414Y6879506D01*
X4782536Y6896384D01*
X4760483Y6905519D01*
X4736614D01*
X4714561Y6896384D01*
X4697683Y6879506D01*
X4688548Y6857453D01*
Y6833584D01*
X4697335Y6812372D01*
X4696412Y6807734D01*
X4696412Y6807733D01*
Y6684367D01*
X4696412Y6684366D01*
X4698741Y6672660D01*
X4705371Y6662737D01*
X4831552Y6536556D01*
Y6448756D01*
X4821326Y6444521D01*
X4804448Y6427643D01*
X4795314Y6405590D01*
Y6381721D01*
X4804448Y6359668D01*
X4821326Y6342790D01*
X4824726Y6341382D01*
Y6112251D01*
X4824726Y6112250D01*
X4827054Y6100544D01*
X4833685Y6090621D01*
X4837572Y6086733D01*
X4832712Y6075000D01*
X4823835D01*
X4798402Y6068185D01*
X4775599Y6055020D01*
X4756980Y6036401D01*
X4743815Y6013598D01*
X4737000Y5988165D01*
Y5961835D01*
X4743815Y5936402D01*
X4756980Y5913599D01*
X4763160Y5907419D01*
X4758300Y5895686D01*
X4736867D01*
X4736654Y5896199D01*
X4719776Y5913077D01*
X4697723Y5922211D01*
X4682657D01*
X4675324Y5934911D01*
X4676185Y5936402D01*
X4683000Y5961835D01*
Y5988165D01*
X4676185Y6013598D01*
X4663020Y6036401D01*
X4644401Y6055020D01*
X4621598Y6068185D01*
X4597761Y6074572D01*
Y6086733D01*
X4595045Y6100389D01*
X4587309Y6111967D01*
X4224042Y6475234D01*
X4212465Y6482969D01*
X4198809Y6485686D01*
X3564530D01*
X3550874Y6482969D01*
X3539296Y6475234D01*
X3538251Y6474189D01*
X2951278D01*
X2693260Y6732208D01*
X2706247Y6749134D01*
X2714812Y6769811D01*
X2717733Y6792000D01*
X2714812Y6814190D01*
X2706247Y6834867D01*
X2692623Y6852623D01*
X2674867Y6866247D01*
X2654190Y6874812D01*
X2632000Y6877734D01*
X2612000D01*
X2589811Y6874812D01*
X2569134Y6866247D01*
X2551377Y6852623D01*
X2537753Y6834867D01*
X2529188Y6814190D01*
X2526267Y6792000D01*
X2529188Y6769811D01*
X2537753Y6749134D01*
X2551377Y6731377D01*
X2569134Y6717753D01*
X2589811Y6709188D01*
X2612000Y6706267D01*
X2620799D01*
X2625901Y6698632D01*
X2911263Y6413270D01*
X2922840Y6405534D01*
X2936497Y6402818D01*
X3020338D01*
X3025198Y6391084D01*
X2969114Y6335000D01*
X2962065D01*
X2940013Y6325865D01*
X2923135Y6308987D01*
X2914000Y6286935D01*
Y6263065D01*
X2923135Y6241013D01*
X2940013Y6224134D01*
X2962065Y6215000D01*
X2985935D01*
X3007987Y6224134D01*
X3024866Y6241013D01*
X3034000Y6263065D01*
Y6270113D01*
X3096508Y6332622D01*
X4127492D01*
X4337000Y6123114D01*
Y6105474D01*
X4344588Y6087153D01*
X4344306Y6085736D01*
X4339184Y6077067D01*
X4336922Y6075000D01*
X4315835D01*
X4290402Y6068185D01*
X4267599Y6055020D01*
X4248980Y6036401D01*
X4235815Y6013598D01*
X4229000Y5988165D01*
Y5961835D01*
X4235815Y5936402D01*
X4248980Y5913599D01*
X4267599Y5894980D01*
X4290402Y5881815D01*
X4315835Y5875000D01*
X4342165D01*
X4367598Y5881815D01*
X4390401Y5894980D01*
X4409020Y5913599D01*
X4422185Y5936402D01*
X4429000Y5961835D01*
Y5988165D01*
X4422185Y6013598D01*
X4409020Y6036401D01*
X4400712Y6044709D01*
X4405973Y6057409D01*
X4408935D01*
X4430987Y6066543D01*
X4447865Y6083421D01*
X4457000Y6105474D01*
Y6123381D01*
X4469700Y6128642D01*
X4526390Y6071952D01*
Y6057786D01*
X4521599Y6055020D01*
X4502980Y6036401D01*
X4489815Y6013598D01*
X4483000Y5988165D01*
Y5961835D01*
X4489815Y5936402D01*
X4502980Y5913599D01*
X4521599Y5894980D01*
X4544402Y5881815D01*
X4569835Y5875000D01*
X4596165D01*
X4614423Y5879892D01*
X4617526Y5878323D01*
X4625789Y5870241D01*
Y5850277D01*
X4634923Y5828224D01*
X4642232Y5820916D01*
X4639252Y5805935D01*
X4627013Y5800865D01*
X4610135Y5783987D01*
X4601000Y5761935D01*
Y5738065D01*
X4610135Y5716013D01*
X4627013Y5699134D01*
X4649065Y5690000D01*
X4670533D01*
X4695314Y5665218D01*
Y5429167D01*
X4680135Y5413987D01*
X4671000Y5391934D01*
Y5368065D01*
X4680135Y5346012D01*
X4697013Y5329134D01*
X4719065Y5320000D01*
X4742935D01*
X4764987Y5329134D01*
X4781866Y5346012D01*
X4791000Y5368065D01*
Y5391934D01*
X4781866Y5413987D01*
X4766686Y5429167D01*
Y5680000D01*
X4763969Y5693656D01*
X4756234Y5705233D01*
X4721000Y5740467D01*
Y5761935D01*
X4711866Y5783987D01*
X4704557Y5791296D01*
X4707537Y5806276D01*
X4719776Y5811346D01*
X4732744Y5824314D01*
X4934743D01*
X5008607Y5750450D01*
Y5723950D01*
X5005388Y5722617D01*
X4988510Y5705739D01*
X4979375Y5683686D01*
Y5659817D01*
X4988510Y5637764D01*
X5005388Y5620886D01*
X5027441Y5611752D01*
X5051310D01*
X5071005Y5619910D01*
X5083705Y5614635D01*
Y5600424D01*
X4996873Y5513592D01*
X4993473Y5515000D01*
X4969604D01*
X4947551Y5505866D01*
X4930673Y5488987D01*
X4921539Y5466935D01*
Y5443065D01*
X4930673Y5421013D01*
X4947551Y5404134D01*
X4969604Y5395000D01*
X4993473D01*
X5015526Y5404134D01*
X5032404Y5421013D01*
X5041538Y5443065D01*
Y5466935D01*
X5040130Y5470334D01*
X5135921Y5566125D01*
X5135922Y5566126D01*
X5142552Y5576049D01*
X5144881Y5587755D01*
Y5758871D01*
X5142552Y5770576D01*
X5135922Y5780499D01*
X5135921Y5780500D01*
X5033708Y5882713D01*
Y5964443D01*
X5031380Y5976149D01*
X5024749Y5986072D01*
X5024748Y5986072D01*
X4885901Y6124920D01*
Y6341382D01*
X4889301Y6342790D01*
X4896904Y6350393D01*
X4909604Y6345132D01*
Y6336400D01*
X4918738Y6314348D01*
X4935616Y6297469D01*
X4957669Y6288335D01*
X4981538D01*
X5003591Y6297469D01*
X5020469Y6314348D01*
X5029604Y6336400D01*
Y6360269D01*
X5020469Y6382322D01*
X5005289Y6397502D01*
Y6514602D01*
X5009976Y6519288D01*
X5017711Y6530865D01*
X5020428Y6544522D01*
Y7217718D01*
X5035623Y7229377D01*
X5049247Y7247133D01*
X5057812Y7267810D01*
X5060733Y7290000D01*
Y7310000D01*
X5057812Y7332189D01*
X5049247Y7352867D01*
X5035623Y7370623D01*
X5017867Y7384247D01*
X4997189Y7392812D01*
X4975000Y7395733D01*
D02*
G37*
G36*
X4088823Y6842000D02*
X4087495D01*
Y6749498D01*
X4180000D01*
Y6750823D01*
X4172844Y6777528D01*
X4159021Y6801471D01*
X4139471Y6821021D01*
X4115528Y6834844D01*
X4088823Y6842000D01*
D02*
G37*
G36*
X4062495D02*
X4061177D01*
X4034471Y6834844D01*
X4010529Y6821021D01*
X3990979Y6801471D01*
X3977156Y6777528D01*
X3970000Y6750823D01*
Y6749498D01*
X4062495D01*
Y6842000D01*
D02*
G37*
G36*
X1290000Y6826135D02*
X1252500D01*
Y6737772D01*
X1389217D01*
X1387426Y6751378D01*
X1377350Y6775704D01*
X1361321Y6796593D01*
X1340431Y6812622D01*
X1316105Y6822698D01*
X1290000Y6826135D01*
D02*
G37*
G36*
X1227500D02*
X1190000D01*
X1163895Y6822698D01*
X1139569Y6812622D01*
X1118679Y6796593D01*
X1102650Y6775704D01*
X1092574Y6751378D01*
X1090783Y6737772D01*
X1227500D01*
Y6826135D01*
D02*
G37*
G36*
X7934236Y6833000D02*
X7929493D01*
Y6670503D01*
X8092000D01*
Y6675236D01*
X8085274Y6709046D01*
X8072083Y6740894D01*
X8052931Y6769556D01*
X8028556Y6793932D01*
X7999893Y6813083D01*
X7968045Y6826275D01*
X7934236Y6833000D01*
D02*
G37*
G36*
X7904493D02*
X7899764D01*
X7865954Y6826275D01*
X7834106Y6813083D01*
X7805444Y6793932D01*
X7781068Y6769556D01*
X7761917Y6740894D01*
X7748725Y6709046D01*
X7742000Y6675236D01*
Y6670503D01*
X7904493D01*
Y6833000D01*
D02*
G37*
G36*
X4596165Y6837000D02*
X4569835D01*
X4544402Y6830185D01*
X4521599Y6817020D01*
X4502980Y6798401D01*
X4489815Y6775598D01*
X4483000Y6750165D01*
Y6723835D01*
X4489815Y6698402D01*
X4502980Y6675599D01*
X4521599Y6656980D01*
X4544402Y6643815D01*
X4569835Y6637000D01*
X4596165D01*
X4621598Y6643815D01*
X4644401Y6656980D01*
X4663020Y6675599D01*
X4676185Y6698402D01*
X4683000Y6723835D01*
Y6750165D01*
X4676185Y6775598D01*
X4663020Y6798401D01*
X4644401Y6817020D01*
X4621598Y6830185D01*
X4596165Y6837000D01*
D02*
G37*
G36*
X4342165D02*
X4315835D01*
X4290402Y6830185D01*
X4267599Y6817020D01*
X4248980Y6798401D01*
X4235815Y6775598D01*
X4229000Y6750165D01*
Y6723835D01*
X4235815Y6698402D01*
X4248980Y6675599D01*
X4267599Y6656980D01*
X4290402Y6643815D01*
X4315835Y6637000D01*
X4342165D01*
X4367598Y6643815D01*
X4390401Y6656980D01*
X4409020Y6675599D01*
X4422185Y6698402D01*
X4429000Y6723835D01*
Y6750165D01*
X4422185Y6775598D01*
X4409020Y6798401D01*
X4390401Y6817020D01*
X4367598Y6830185D01*
X4342165Y6837000D01*
D02*
G37*
G36*
X3834165D02*
X3807835D01*
X3782402Y6830185D01*
X3759599Y6817020D01*
X3740980Y6798401D01*
X3727815Y6775598D01*
X3721000Y6750165D01*
Y6723835D01*
X3727815Y6698402D01*
X3740980Y6675599D01*
X3759599Y6656980D01*
X3782402Y6643815D01*
X3807835Y6637000D01*
X3834165D01*
X3859598Y6643815D01*
X3882401Y6656980D01*
X3901020Y6675599D01*
X3914185Y6698402D01*
X3921000Y6723835D01*
Y6750165D01*
X3914185Y6775598D01*
X3901020Y6798401D01*
X3882401Y6817020D01*
X3859598Y6830185D01*
X3834165Y6837000D01*
D02*
G37*
G36*
X3580165D02*
X3553835D01*
X3528402Y6830185D01*
X3505599Y6817020D01*
X3486980Y6798401D01*
X3473815Y6775598D01*
X3467000Y6750165D01*
Y6723835D01*
X3473815Y6698402D01*
X3486980Y6675599D01*
X3505599Y6656980D01*
X3528402Y6643815D01*
X3553835Y6637000D01*
X3580165D01*
X3605598Y6643815D01*
X3628401Y6656980D01*
X3647020Y6675599D01*
X3660185Y6698402D01*
X3667000Y6723835D01*
Y6750165D01*
X3660185Y6775598D01*
X3647020Y6798401D01*
X3628401Y6817020D01*
X3605598Y6830185D01*
X3580165Y6837000D01*
D02*
G37*
G36*
X3326165D02*
X3299835D01*
X3274402Y6830185D01*
X3251599Y6817020D01*
X3232980Y6798401D01*
X3219815Y6775598D01*
X3213000Y6750165D01*
Y6723835D01*
X3219815Y6698402D01*
X3232980Y6675599D01*
X3251599Y6656980D01*
X3274402Y6643815D01*
X3299835Y6637000D01*
X3326165D01*
X3351598Y6643815D01*
X3374401Y6656980D01*
X3393020Y6675599D01*
X3406185Y6698402D01*
X3413000Y6723835D01*
Y6750165D01*
X3406185Y6775598D01*
X3393020Y6798401D01*
X3374401Y6817020D01*
X3351598Y6830185D01*
X3326165Y6837000D01*
D02*
G37*
G36*
X3072165D02*
X3045835D01*
X3020402Y6830185D01*
X2997599Y6817020D01*
X2978980Y6798401D01*
X2965815Y6775598D01*
X2959000Y6750165D01*
Y6723835D01*
X2965815Y6698402D01*
X2978980Y6675599D01*
X2997599Y6656980D01*
X3020402Y6643815D01*
X3045835Y6637000D01*
X3072165D01*
X3097598Y6643815D01*
X3120401Y6656980D01*
X3139020Y6675599D01*
X3152185Y6698402D01*
X3159000Y6723835D01*
Y6750165D01*
X3152185Y6775598D01*
X3139020Y6798401D01*
X3120401Y6817020D01*
X3097598Y6830185D01*
X3072165Y6837000D01*
D02*
G37*
G36*
X4180000Y6724498D02*
X4087495D01*
Y6632000D01*
X4088823D01*
X4115528Y6639156D01*
X4139471Y6652979D01*
X4159021Y6672529D01*
X4172844Y6696471D01*
X4180000Y6723177D01*
Y6724498D01*
D02*
G37*
G36*
X4062495D02*
X3970000D01*
Y6723177D01*
X3977156Y6696471D01*
X3990979Y6672529D01*
X4010529Y6652979D01*
X4034471Y6639156D01*
X4061177Y6632000D01*
X4062495D01*
Y6724498D01*
D02*
G37*
G36*
X1690000Y6821092D02*
X1590000D01*
X1565200Y6817827D01*
X1542090Y6808255D01*
X1522245Y6793027D01*
X1507018Y6773182D01*
X1497445Y6750072D01*
X1494180Y6725273D01*
X1497445Y6700473D01*
X1507018Y6677363D01*
X1522245Y6657518D01*
X1542090Y6642291D01*
X1565200Y6632718D01*
X1590000Y6629453D01*
X1690000D01*
X1714800Y6632718D01*
X1737910Y6642291D01*
X1757754Y6657518D01*
X1772982Y6677363D01*
X1782554Y6700473D01*
X1785819Y6725273D01*
X1782554Y6750072D01*
X1772982Y6773182D01*
X1757754Y6793027D01*
X1737910Y6808255D01*
X1714800Y6817827D01*
X1690000Y6821092D01*
D02*
G37*
G36*
X1389217Y6712773D02*
X1252500D01*
Y6624410D01*
X1290000D01*
X1316105Y6627847D01*
X1340431Y6637923D01*
X1361321Y6653952D01*
X1377350Y6674841D01*
X1387426Y6699167D01*
X1389217Y6712773D01*
D02*
G37*
G36*
X1227500D02*
X1090783D01*
X1092574Y6699167D01*
X1102650Y6674841D01*
X1118679Y6653952D01*
X1139569Y6637923D01*
X1163895Y6627847D01*
X1190000Y6624410D01*
X1227500D01*
Y6712773D01*
D02*
G37*
G36*
X8092000Y6645503D02*
X7929493D01*
Y6483000D01*
X7934236D01*
X7968045Y6489725D01*
X7999893Y6502917D01*
X8028556Y6522069D01*
X8052931Y6546444D01*
X8072083Y6575106D01*
X8085274Y6606955D01*
X8092000Y6640764D01*
Y6645503D01*
D02*
G37*
G36*
X7904493D02*
X7742000D01*
Y6640764D01*
X7748725Y6606955D01*
X7761917Y6575106D01*
X7781068Y6546444D01*
X7805444Y6522069D01*
X7834106Y6502917D01*
X7865954Y6489725D01*
X7899764Y6483000D01*
X7904493D01*
Y6645503D01*
D02*
G37*
G36*
X1205216Y6495273D02*
X1186784D01*
X1168981Y6490502D01*
X1153019Y6481287D01*
X1139986Y6468254D01*
X1130770Y6452292D01*
X1126000Y6434488D01*
Y6416057D01*
X1130770Y6398254D01*
X1139986Y6382292D01*
X1153019Y6369259D01*
X1168981Y6360043D01*
X1186784Y6355273D01*
X1205216D01*
X1223019Y6360043D01*
X1238981Y6369259D01*
X1252014Y6382292D01*
X1261229Y6398254D01*
X1266000Y6416057D01*
Y6434488D01*
X1261229Y6452292D01*
X1252014Y6468254D01*
X1238981Y6481287D01*
X1223019Y6490502D01*
X1205216Y6495273D01*
D02*
G37*
G36*
X7226743Y6655000D02*
X7193256D01*
X7160412Y6648467D01*
X7129474Y6635652D01*
X7101631Y6617048D01*
X7077952Y6593369D01*
X7059348Y6565525D01*
X7046533Y6534587D01*
X7040000Y6501744D01*
Y6468257D01*
X7046533Y6435413D01*
X7059348Y6404475D01*
X7077952Y6376632D01*
X7101631Y6352953D01*
X7129474Y6334348D01*
X7160412Y6321533D01*
X7193256Y6315000D01*
X7226743D01*
X7259587Y6321533D01*
X7290525Y6334348D01*
X7318368Y6352953D01*
X7342047Y6376632D01*
X7360652Y6404475D01*
X7373466Y6435413D01*
X7379999Y6468257D01*
Y6501744D01*
X7373466Y6534587D01*
X7360652Y6565525D01*
X7342047Y6593369D01*
X7318368Y6617048D01*
X7290525Y6635652D01*
X7259587Y6648467D01*
X7226743Y6655000D01*
D02*
G37*
G36*
X2632000Y6385733D02*
X2612000D01*
X2589811Y6382812D01*
X2569134Y6374247D01*
X2551377Y6360623D01*
X2537753Y6342867D01*
X2529188Y6322190D01*
X2526267Y6300000D01*
X2529188Y6277811D01*
X2537753Y6257134D01*
X2551377Y6239377D01*
X2569134Y6225753D01*
X2589811Y6217188D01*
X2612000Y6214267D01*
X2632000D01*
X2654190Y6217188D01*
X2674867Y6225753D01*
X2692623Y6239377D01*
X2706247Y6257134D01*
X2714812Y6277811D01*
X2717733Y6300000D01*
X2714812Y6322190D01*
X2706247Y6342867D01*
X2692623Y6360623D01*
X2674867Y6374247D01*
X2654190Y6382812D01*
X2632000Y6385733D01*
D02*
G37*
G36*
Y6131733D02*
X2612000D01*
X2589811Y6128812D01*
X2569134Y6120247D01*
X2551377Y6106623D01*
X2537753Y6088867D01*
X2529188Y6068190D01*
X2526267Y6046000D01*
X2529188Y6023811D01*
X2537753Y6003134D01*
X2551377Y5985377D01*
X2569134Y5971753D01*
X2589811Y5963188D01*
X2612000Y5960267D01*
X2632000D01*
X2654190Y5963188D01*
X2674867Y5971753D01*
X2692623Y5985377D01*
X2706247Y6003134D01*
X2714812Y6023811D01*
X2717733Y6046000D01*
X2714812Y6068190D01*
X2706247Y6088867D01*
X2692623Y6106623D01*
X2674867Y6120247D01*
X2654190Y6128812D01*
X2632000Y6131733D01*
D02*
G37*
G36*
X4088165Y6075000D02*
X4061835D01*
X4036402Y6068185D01*
X4013599Y6055020D01*
X3994980Y6036401D01*
X3981815Y6013598D01*
X3975000Y5988165D01*
Y5961835D01*
X3981815Y5936402D01*
X3994980Y5913599D01*
X4013599Y5894980D01*
X4036402Y5881815D01*
X4061835Y5875000D01*
X4088165D01*
X4113598Y5881815D01*
X4136401Y5894980D01*
X4155020Y5913599D01*
X4168185Y5936402D01*
X4175000Y5961835D01*
Y5988165D01*
X4168185Y6013598D01*
X4155020Y6036401D01*
X4136401Y6055020D01*
X4113598Y6068185D01*
X4088165Y6075000D01*
D02*
G37*
G36*
X3580165D02*
X3553835D01*
X3528402Y6068185D01*
X3505599Y6055020D01*
X3486980Y6036401D01*
X3473815Y6013598D01*
X3467000Y5988165D01*
Y5961835D01*
X3473815Y5936402D01*
X3486980Y5913599D01*
X3505599Y5894980D01*
X3528402Y5881815D01*
X3553835Y5875000D01*
X3580165D01*
X3605598Y5881815D01*
X3628401Y5894980D01*
X3647020Y5913599D01*
X3660185Y5936402D01*
X3667000Y5961835D01*
Y5988165D01*
X3660185Y6013598D01*
X3647020Y6036401D01*
X3628401Y6055020D01*
X3605598Y6068185D01*
X3580165Y6075000D01*
D02*
G37*
G36*
X3326165D02*
X3299835D01*
X3274402Y6068185D01*
X3251599Y6055020D01*
X3232980Y6036401D01*
X3219815Y6013598D01*
X3213000Y5988165D01*
Y5961835D01*
X3219815Y5936402D01*
X3232980Y5913599D01*
X3251599Y5894980D01*
X3274402Y5881815D01*
X3299835Y5875000D01*
X3326165D01*
X3351598Y5881815D01*
X3374401Y5894980D01*
X3393020Y5913599D01*
X3406185Y5936402D01*
X3413000Y5961835D01*
Y5988165D01*
X3406185Y6013598D01*
X3393020Y6036401D01*
X3374401Y6055020D01*
X3351598Y6068185D01*
X3326165Y6075000D01*
D02*
G37*
G36*
X3072165D02*
X3045835D01*
X3020402Y6068185D01*
X2997599Y6055020D01*
X2978980Y6036401D01*
X2965815Y6013598D01*
X2959000Y5988165D01*
Y5961835D01*
X2965815Y5936402D01*
X2978980Y5913599D01*
X2997599Y5894980D01*
X3020402Y5881815D01*
X3045835Y5875000D01*
X3072165D01*
X3097598Y5881815D01*
X3120401Y5894980D01*
X3139020Y5913599D01*
X3152185Y5936402D01*
X3159000Y5961835D01*
Y5988165D01*
X3152185Y6013598D01*
X3139020Y6036401D01*
X3120401Y6055020D01*
X3097598Y6068185D01*
X3072165Y6075000D01*
D02*
G37*
G36*
X7526743Y6085000D02*
X7493256D01*
X7460412Y6078467D01*
X7429474Y6065652D01*
X7401631Y6047047D01*
X7377952Y6023368D01*
X7359347Y5995525D01*
X7346533Y5964587D01*
X7340000Y5931743D01*
Y5898256D01*
X7346533Y5865413D01*
X7359347Y5834475D01*
X7377952Y5806631D01*
X7401631Y5782952D01*
X7429474Y5764348D01*
X7460412Y5751533D01*
X7493256Y5745000D01*
X7526743D01*
X7559587Y5751533D01*
X7590525Y5764348D01*
X7618368Y5782952D01*
X7642047Y5806631D01*
X7660651Y5834475D01*
X7673466Y5865413D01*
X7679999Y5898256D01*
Y5931743D01*
X7673466Y5964587D01*
X7660651Y5995525D01*
X7642047Y6023368D01*
X7618368Y6047047D01*
X7590525Y6065652D01*
X7559587Y6078467D01*
X7526743Y6085000D01*
D02*
G37*
G36*
X5331439Y6866550D02*
X5307570D01*
X5285517Y6857416D01*
X5268639Y6840538D01*
X5259505Y6818485D01*
Y6794616D01*
X5268639Y6772563D01*
X5285517Y6755685D01*
X5307570Y6746550D01*
X5331439D01*
X5353492Y6755685D01*
X5368672Y6770865D01*
X5465644D01*
X5659132Y6577376D01*
Y6499600D01*
X5394766Y6235233D01*
X5387031Y6223656D01*
X5384314Y6210000D01*
Y5499167D01*
X5369134Y5483987D01*
X5360000Y5461935D01*
Y5438065D01*
X5369134Y5416013D01*
X5386013Y5399134D01*
X5408065Y5390000D01*
X5431935D01*
X5453987Y5399134D01*
X5470865Y5416013D01*
X5480000Y5438065D01*
Y5461935D01*
X5470865Y5483987D01*
X5455686Y5499167D01*
Y5964865D01*
X5468386Y5967391D01*
X5474134Y5953513D01*
X5491013Y5936634D01*
X5513065Y5927500D01*
X5536935D01*
X5558987Y5936634D01*
X5574167Y5951814D01*
X5756705D01*
X5913950Y5794569D01*
Y5773102D01*
X5923084Y5751049D01*
X5939963Y5734171D01*
X5962015Y5725037D01*
X5985885D01*
X6007937Y5734171D01*
X6024815Y5751049D01*
X6033950Y5773102D01*
Y5796971D01*
X6024815Y5819024D01*
X6007937Y5835902D01*
X5985885Y5845037D01*
X5964417D01*
X5796720Y6012733D01*
X5785143Y6020469D01*
X5771487Y6023186D01*
X5574167D01*
X5558987Y6038365D01*
X5536935Y6047500D01*
X5513065D01*
X5491013Y6038365D01*
X5474134Y6021487D01*
X5468386Y6007608D01*
X5455686Y6010135D01*
Y6195218D01*
X5720052Y6459584D01*
X5727787Y6471162D01*
X5730504Y6484818D01*
Y6592158D01*
X5727787Y6605814D01*
X5720052Y6617391D01*
X5505659Y6831784D01*
X5494082Y6839519D01*
X5480426Y6842236D01*
X5368672D01*
X5353492Y6857416D01*
X5331439Y6866550D01*
D02*
G37*
G36*
X2684000Y5877646D02*
X2560000D01*
X2547124Y5875085D01*
X2536209Y5867792D01*
X2528915Y5856876D01*
X2526354Y5844000D01*
Y5740000D01*
X2528915Y5727124D01*
X2536209Y5716209D01*
X2547124Y5708915D01*
X2560000Y5706354D01*
X2684000D01*
X2696876Y5708915D01*
X2707792Y5716209D01*
X2715085Y5727124D01*
X2717646Y5740000D01*
Y5844000D01*
X2715085Y5856876D01*
X2707792Y5867792D01*
X2696876Y5875085D01*
X2684000Y5877646D01*
D02*
G37*
G36*
X3834165Y6075000D02*
X3807835D01*
X3782402Y6068185D01*
X3759599Y6055020D01*
X3740980Y6036401D01*
X3727815Y6013598D01*
X3721000Y5988165D01*
Y5961835D01*
X3727815Y5936402D01*
X3740980Y5913599D01*
X3759599Y5894980D01*
X3782402Y5881815D01*
X3807835Y5875000D01*
X3834165D01*
X3859598Y5881815D01*
X3862210Y5883323D01*
X4076315Y5669218D01*
Y5509167D01*
X4061135Y5493987D01*
X4052001Y5471935D01*
Y5448065D01*
X4061135Y5426013D01*
X4078013Y5409134D01*
X4100066Y5400000D01*
X4123935D01*
X4145988Y5409134D01*
X4162866Y5426013D01*
X4172000Y5448065D01*
Y5471935D01*
X4162866Y5493987D01*
X4147686Y5509167D01*
Y5684000D01*
X4144970Y5697656D01*
X4137234Y5709233D01*
X3912677Y5933790D01*
X3914185Y5936402D01*
X3921000Y5961835D01*
Y5988165D01*
X3914185Y6013598D01*
X3901020Y6036401D01*
X3882401Y6055020D01*
X3859598Y6068185D01*
X3834165Y6075000D01*
D02*
G37*
G36*
X8106743Y5685000D02*
X8073256D01*
X8040412Y5678467D01*
X8009474Y5665652D01*
X7981631Y5647047D01*
X7957952Y5623368D01*
X7939348Y5595525D01*
X7926533Y5564587D01*
X7920000Y5531743D01*
Y5498256D01*
X7926533Y5465413D01*
X7939348Y5434475D01*
X7957952Y5406631D01*
X7981631Y5382952D01*
X8009474Y5364348D01*
X8040412Y5351533D01*
X8073256Y5345000D01*
X8106743D01*
X8139587Y5351533D01*
X8170525Y5364348D01*
X8198368Y5382952D01*
X8222047Y5406631D01*
X8240652Y5434475D01*
X8253466Y5465413D01*
X8259999Y5498256D01*
Y5531743D01*
X8253466Y5564587D01*
X8240652Y5595525D01*
X8222047Y5623368D01*
X8198368Y5647047D01*
X8170525Y5665652D01*
X8139587Y5678467D01*
X8106743Y5685000D01*
D02*
G37*
G36*
X1275000Y5425863D02*
X1237500D01*
Y5337500D01*
X1374217D01*
X1372426Y5351105D01*
X1362350Y5375431D01*
X1346321Y5396321D01*
X1325432Y5412350D01*
X1301105Y5422426D01*
X1275000Y5425863D01*
D02*
G37*
G36*
X1212500D02*
X1175000D01*
X1148895Y5422426D01*
X1124568Y5412350D01*
X1103679Y5396321D01*
X1087650Y5375431D01*
X1077574Y5351105D01*
X1075783Y5337500D01*
X1212500D01*
Y5425863D01*
D02*
G37*
G36*
X1190216Y5695000D02*
X1171784D01*
X1153981Y5690229D01*
X1138019Y5681014D01*
X1124986Y5667981D01*
X1115770Y5652019D01*
X1111000Y5634216D01*
Y5615784D01*
X1115770Y5597981D01*
X1124986Y5582019D01*
X1138019Y5568986D01*
X1153981Y5559770D01*
X1158418Y5558581D01*
X1156746Y5545881D01*
X990000D01*
X972442Y5542389D01*
X957557Y5532443D01*
X808026Y5382913D01*
X791013Y5375866D01*
X774134Y5358987D01*
X765000Y5336935D01*
Y5313065D01*
X774134Y5291013D01*
X791013Y5274134D01*
X813065Y5265000D01*
X836935D01*
X858987Y5274134D01*
X875865Y5291013D01*
X885000Y5313065D01*
Y5330114D01*
X1009005Y5454118D01*
X1500196D01*
X1520929Y5433386D01*
X1515668Y5420686D01*
X1515000D01*
X1501343Y5417969D01*
X1489766Y5410234D01*
X1482031Y5398656D01*
X1479314Y5385000D01*
Y5265000D01*
X1482031Y5251344D01*
X1489766Y5239767D01*
X1501343Y5232031D01*
X1515000Y5229314D01*
X1735000D01*
X1748656Y5232031D01*
X1760233Y5239767D01*
X1767969Y5251344D01*
X1770686Y5265000D01*
Y5385000D01*
X1767969Y5398656D01*
X1760233Y5410234D01*
X1748656Y5417969D01*
X1735000Y5420686D01*
X1619372D01*
Y5445710D01*
X1615879Y5463269D01*
X1605933Y5478154D01*
X1551644Y5532443D01*
X1536759Y5542389D01*
X1519201Y5545881D01*
X1205254D01*
X1203582Y5558581D01*
X1208019Y5559770D01*
X1223981Y5568986D01*
X1237014Y5582019D01*
X1246229Y5597981D01*
X1251000Y5615784D01*
Y5634216D01*
X1246229Y5652019D01*
X1237014Y5667981D01*
X1223981Y5681014D01*
X1208019Y5690229D01*
X1190216Y5695000D01*
D02*
G37*
G36*
X1374217Y5312500D02*
X1237500D01*
Y5224137D01*
X1275000D01*
X1301105Y5227574D01*
X1325432Y5237650D01*
X1346321Y5253679D01*
X1362350Y5274569D01*
X1372426Y5298895D01*
X1374217Y5312500D01*
D02*
G37*
G36*
X1212500D02*
X1075783D01*
X1077574Y5298895D01*
X1087650Y5274569D01*
X1103679Y5253679D01*
X1124568Y5237650D01*
X1148895Y5227574D01*
X1175000Y5224137D01*
X1212500D01*
Y5312500D01*
D02*
G37*
G36*
X1675000Y5125862D02*
X1637500D01*
Y5037500D01*
X1774217D01*
X1772426Y5051105D01*
X1762350Y5075431D01*
X1746321Y5096321D01*
X1725431Y5112349D01*
X1701105Y5122426D01*
X1675000Y5125862D01*
D02*
G37*
G36*
X1612500D02*
X1575000D01*
X1548895Y5122426D01*
X1524568Y5112349D01*
X1503679Y5096321D01*
X1487650Y5075431D01*
X1477574Y5051105D01*
X1475783Y5037500D01*
X1612500D01*
Y5125862D01*
D02*
G37*
G36*
X1774217Y5012500D02*
X1637500D01*
Y4924137D01*
X1675000D01*
X1701105Y4927574D01*
X1725431Y4937650D01*
X1746321Y4953679D01*
X1762350Y4974569D01*
X1772426Y4998895D01*
X1774217Y5012500D01*
D02*
G37*
G36*
X1612500D02*
X1475783D01*
X1477574Y4998895D01*
X1487650Y4974569D01*
X1503679Y4953679D01*
X1524568Y4937650D01*
X1548895Y4927574D01*
X1575000Y4924137D01*
X1612500D01*
Y5012500D01*
D02*
G37*
G36*
X7934236Y4983000D02*
X7929493D01*
Y4820499D01*
X8092000D01*
Y4825236D01*
X8085274Y4859045D01*
X8072083Y4890893D01*
X8052931Y4919556D01*
X8028556Y4943931D01*
X7999893Y4963083D01*
X7968045Y4976275D01*
X7934236Y4983000D01*
D02*
G37*
G36*
X7904493D02*
X7899764D01*
X7865954Y4976275D01*
X7834106Y4963083D01*
X7805444Y4943931D01*
X7781068Y4919556D01*
X7761917Y4890893D01*
X7748725Y4859045D01*
X7742000Y4825236D01*
Y4820499D01*
X7904493D01*
Y4983000D01*
D02*
G37*
G36*
X8092000Y4795499D02*
X7929493D01*
Y4633000D01*
X7934236D01*
X7968045Y4639725D01*
X7999893Y4652917D01*
X8028556Y4672068D01*
X8052931Y4696444D01*
X8072083Y4725106D01*
X8085274Y4756954D01*
X8092000Y4790764D01*
Y4795499D01*
D02*
G37*
G36*
X7904493D02*
X7742000D01*
Y4790764D01*
X7748725Y4756954D01*
X7761917Y4725106D01*
X7781068Y4696444D01*
X7805444Y4672068D01*
X7834106Y4652917D01*
X7865954Y4639725D01*
X7899764Y4633000D01*
X7904493D01*
Y4795499D01*
D02*
G37*
G36*
X4157935Y4635865D02*
X4134065D01*
X4112013Y4626731D01*
X4095134Y4609853D01*
X4094993Y4609512D01*
X4087830D01*
X4074174Y4606796D01*
X4062597Y4599060D01*
X3744766Y4281230D01*
X3737031Y4269653D01*
X3734314Y4255996D01*
Y3958867D01*
X3719134Y3943687D01*
X3710000Y3921634D01*
Y3897765D01*
X3719134Y3875712D01*
X3736013Y3858834D01*
X3758065Y3849700D01*
X3781935D01*
X3803987Y3858834D01*
X3820865Y3875712D01*
X3830000Y3897765D01*
Y3921634D01*
X3820865Y3943687D01*
X3805686Y3958867D01*
Y4241215D01*
X4100742Y4536271D01*
X4112013Y4525000D01*
X4134065Y4515865D01*
X4157935D01*
X4179987Y4525000D01*
X4196865Y4541878D01*
X4206000Y4563931D01*
Y4587800D01*
X4196865Y4609853D01*
X4179987Y4626731D01*
X4157935Y4635865D01*
D02*
G37*
G36*
X4432934Y4585000D02*
X4409065D01*
X4387013Y4575865D01*
X4370134Y4558987D01*
X4361000Y4536935D01*
Y4513065D01*
X4370134Y4491013D01*
X4387012Y4474135D01*
X4389417Y4462045D01*
X4012071Y4084699D01*
X3989065D01*
X3967013Y4075565D01*
X3950134Y4058687D01*
X3941000Y4036634D01*
Y4012765D01*
X3950134Y3990712D01*
X3967013Y3973834D01*
X3989065Y3964700D01*
X4012935D01*
X4034987Y3973834D01*
X4051865Y3990712D01*
X4061000Y4012765D01*
Y4032693D01*
X4442621Y4414314D01*
X4600833D01*
X4616013Y4399134D01*
X4638065Y4390000D01*
X4661935D01*
X4683987Y4399134D01*
X4700865Y4416013D01*
X4710000Y4438065D01*
Y4461935D01*
X4703919Y4476614D01*
X4712132Y4489314D01*
X5139208D01*
Y4477379D01*
X5148343Y4455327D01*
X5165221Y4438449D01*
X5187274Y4429314D01*
X5211143D01*
X5233196Y4438449D01*
X5250074Y4455327D01*
X5259208Y4477379D01*
Y4501249D01*
X5250074Y4523301D01*
X5233196Y4540180D01*
X5211143Y4549314D01*
X5187274D01*
X5184101Y4548000D01*
X5181868Y4550233D01*
X5170291Y4557969D01*
X5156634Y4560686D01*
X4470167D01*
X4454987Y4575865D01*
X4432934Y4585000D01*
D02*
G37*
G36*
X1190216Y4495000D02*
X1171784D01*
X1153981Y4490229D01*
X1138019Y4481014D01*
X1124986Y4467981D01*
X1115770Y4452019D01*
X1111000Y4434215D01*
Y4415784D01*
X1115770Y4397981D01*
X1124986Y4382019D01*
X1138019Y4368986D01*
X1153981Y4359770D01*
X1171784Y4355000D01*
X1190216D01*
X1208019Y4359770D01*
X1223981Y4368986D01*
X1237014Y4382019D01*
X1246229Y4397981D01*
X1251000Y4415784D01*
Y4434215D01*
X1246229Y4452019D01*
X1237014Y4467981D01*
X1223981Y4481014D01*
X1208019Y4490229D01*
X1190216Y4495000D01*
D02*
G37*
G36*
Y4195000D02*
X1171784D01*
X1153981Y4190230D01*
X1138019Y4181014D01*
X1124986Y4167981D01*
X1115770Y4152019D01*
X1111000Y4134216D01*
Y4115785D01*
X1115770Y4097981D01*
X1124986Y4082019D01*
X1138019Y4068986D01*
X1153981Y4059771D01*
X1171784Y4055000D01*
X1190216D01*
X1208019Y4059771D01*
X1223981Y4068986D01*
X1237014Y4082019D01*
X1246229Y4097981D01*
X1251000Y4115785D01*
Y4134216D01*
X1246229Y4152019D01*
X1237014Y4167981D01*
X1223981Y4181014D01*
X1208019Y4190230D01*
X1190216Y4195000D01*
D02*
G37*
G36*
X1275000Y3925863D02*
X1237500D01*
Y3837500D01*
X1374217D01*
X1372426Y3851105D01*
X1362350Y3875431D01*
X1346321Y3896321D01*
X1325432Y3912350D01*
X1301105Y3922426D01*
X1275000Y3925863D01*
D02*
G37*
G36*
X1212500D02*
X1175000D01*
X1148895Y3922426D01*
X1124568Y3912350D01*
X1103679Y3896321D01*
X1087650Y3875431D01*
X1077574Y3851105D01*
X1075783Y3837500D01*
X1212500D01*
Y3925863D01*
D02*
G37*
G36*
X1735000Y3920686D02*
X1515000D01*
X1501343Y3917969D01*
X1489766Y3910234D01*
X1482031Y3898656D01*
X1479314Y3885000D01*
Y3765000D01*
X1482031Y3751344D01*
X1489766Y3739767D01*
X1501343Y3732031D01*
X1515000Y3729315D01*
X1735000D01*
X1748656Y3732031D01*
X1760233Y3739767D01*
X1767969Y3751344D01*
X1770686Y3765000D01*
Y3885000D01*
X1767969Y3898656D01*
X1760233Y3910234D01*
X1748656Y3917969D01*
X1735000Y3920686D01*
D02*
G37*
G36*
X1374217Y3812500D02*
X1237500D01*
Y3724138D01*
X1275000D01*
X1301105Y3727574D01*
X1325432Y3737651D01*
X1346321Y3753680D01*
X1362350Y3774569D01*
X1372426Y3798895D01*
X1374217Y3812500D01*
D02*
G37*
G36*
X1212500D02*
X1075783D01*
X1077574Y3798895D01*
X1087650Y3774569D01*
X1103679Y3753680D01*
X1124568Y3737651D01*
X1148895Y3727574D01*
X1175000Y3724138D01*
X1212500D01*
Y3812500D01*
D02*
G37*
G36*
X1275000Y3625863D02*
X1237500D01*
Y3537500D01*
X1374217D01*
X1372426Y3551105D01*
X1362350Y3575432D01*
X1346321Y3596321D01*
X1325432Y3612350D01*
X1301105Y3622426D01*
X1275000Y3625863D01*
D02*
G37*
G36*
X1212500D02*
X1175000D01*
X1148895Y3622426D01*
X1124568Y3612350D01*
X1103679Y3596321D01*
X1087650Y3575432D01*
X1077574Y3551105D01*
X1075783Y3537500D01*
X1212500D01*
Y3625863D01*
D02*
G37*
G36*
X1675000Y3620820D02*
X1575000D01*
X1550200Y3617555D01*
X1527090Y3607982D01*
X1507245Y3592755D01*
X1492018Y3572910D01*
X1482445Y3549800D01*
X1479180Y3525000D01*
X1482445Y3500200D01*
X1492018Y3477090D01*
X1507245Y3457246D01*
X1527090Y3442018D01*
X1550200Y3432446D01*
X1575000Y3429181D01*
X1675000D01*
X1699800Y3432446D01*
X1722910Y3442018D01*
X1742754Y3457246D01*
X1757982Y3477090D01*
X1767555Y3500200D01*
X1770819Y3525000D01*
X1767555Y3549800D01*
X1757982Y3572910D01*
X1742754Y3592755D01*
X1722910Y3607982D01*
X1699800Y3617555D01*
X1675000Y3620820D01*
D02*
G37*
G36*
X1374217Y3512500D02*
X1237500D01*
Y3424137D01*
X1275000D01*
X1301105Y3427574D01*
X1325432Y3437650D01*
X1346321Y3453679D01*
X1362350Y3474569D01*
X1372426Y3498895D01*
X1374217Y3512500D01*
D02*
G37*
G36*
X1212500D02*
X1075783D01*
X1077574Y3498895D01*
X1087650Y3474569D01*
X1103679Y3453679D01*
X1124568Y3437650D01*
X1148895Y3427574D01*
X1175000Y3424137D01*
X1212500D01*
Y3512500D01*
D02*
G37*
G36*
X3681949Y3575000D02*
X3658080D01*
X3636027Y3565866D01*
X3619149Y3548987D01*
X3610014Y3526935D01*
Y3503065D01*
X3619149Y3481013D01*
X3636027Y3464135D01*
X3658080Y3455000D01*
X3681949D01*
X3704001Y3464135D01*
X3719181Y3479314D01*
X4141253D01*
X4195868Y3424699D01*
X4189896Y3418728D01*
X4180762Y3396675D01*
Y3372806D01*
X4189896Y3350753D01*
X4206774Y3333875D01*
X4228827Y3324741D01*
X4252696D01*
X4274749Y3333875D01*
X4291627Y3350753D01*
X4300762Y3372806D01*
Y3396675D01*
X4291627Y3418728D01*
X4274749Y3435606D01*
X4269037Y3437972D01*
X4266393Y3451267D01*
X4258657Y3462844D01*
X4181268Y3540234D01*
X4169690Y3547969D01*
X4156034Y3550686D01*
X3719181D01*
X3704001Y3565866D01*
X3681949Y3575000D01*
D02*
G37*
G36*
X1275000Y3325863D02*
X1237500D01*
Y3237500D01*
X1374217D01*
X1372426Y3251105D01*
X1362350Y3275432D01*
X1346321Y3296321D01*
X1325432Y3312350D01*
X1301105Y3322426D01*
X1275000Y3325863D01*
D02*
G37*
G36*
X1212500D02*
X1175000D01*
X1148895Y3322426D01*
X1124568Y3312350D01*
X1103679Y3296321D01*
X1087650Y3275432D01*
X1077574Y3251105D01*
X1075783Y3237500D01*
X1212500D01*
Y3325863D01*
D02*
G37*
G36*
X1675000Y3320820D02*
X1575000D01*
X1550200Y3317555D01*
X1527090Y3307982D01*
X1507245Y3292755D01*
X1492018Y3272910D01*
X1482445Y3249800D01*
X1479180Y3225000D01*
X1482445Y3200200D01*
X1492018Y3177090D01*
X1507245Y3157246D01*
X1527090Y3142018D01*
X1550200Y3132446D01*
X1575000Y3129181D01*
X1675000D01*
X1699800Y3132446D01*
X1722910Y3142018D01*
X1742754Y3157246D01*
X1757982Y3177090D01*
X1767555Y3200200D01*
X1770819Y3225000D01*
X1767555Y3249800D01*
X1757982Y3272910D01*
X1742754Y3292755D01*
X1722910Y3307982D01*
X1699800Y3317555D01*
X1675000Y3320820D01*
D02*
G37*
G36*
X1374217Y3212500D02*
X1237500D01*
Y3124138D01*
X1275000D01*
X1301105Y3127574D01*
X1325432Y3137651D01*
X1346321Y3153679D01*
X1362350Y3174569D01*
X1372426Y3198895D01*
X1374217Y3212500D01*
D02*
G37*
G36*
X1212500D02*
X1075783D01*
X1077574Y3198895D01*
X1087650Y3174569D01*
X1103679Y3153679D01*
X1124568Y3137651D01*
X1148895Y3127574D01*
X1175000Y3124138D01*
X1212500D01*
Y3212500D01*
D02*
G37*
G36*
X1275000Y3025863D02*
X1237500D01*
Y2937500D01*
X1374217D01*
X1372426Y2951105D01*
X1362350Y2975431D01*
X1346321Y2996321D01*
X1325432Y3012350D01*
X1301105Y3022426D01*
X1275000Y3025863D01*
D02*
G37*
G36*
X1212500D02*
X1175000D01*
X1148895Y3022426D01*
X1124568Y3012350D01*
X1103679Y2996321D01*
X1087650Y2975431D01*
X1077574Y2951105D01*
X1075783Y2937500D01*
X1212500D01*
Y3025863D01*
D02*
G37*
G36*
X4456219Y3595470D02*
X4432350D01*
X4410298Y3586335D01*
X4393419Y3569457D01*
X4384285Y3547405D01*
Y3523535D01*
X4393419Y3501483D01*
X4410298Y3484604D01*
X4432350Y3475470D01*
X4451201D01*
X4675314Y3251357D01*
Y3070646D01*
X4659000D01*
X4646124Y3068085D01*
X4635208Y3060791D01*
X4627915Y3049876D01*
X4625354Y3037000D01*
Y2913000D01*
X4627915Y2900124D01*
X4635208Y2889208D01*
X4646124Y2881915D01*
X4659000Y2879354D01*
X4763000D01*
X4775876Y2881915D01*
X4786792Y2889208D01*
X4794085Y2900124D01*
X4796646Y2913000D01*
Y3037000D01*
X4794085Y3049876D01*
X4786792Y3060791D01*
X4775876Y3068085D01*
X4763000Y3070646D01*
X4746686D01*
Y3266139D01*
X4743969Y3279795D01*
X4736234Y3291372D01*
X4504222Y3523384D01*
X4504285Y3523535D01*
Y3547405D01*
X4495150Y3569457D01*
X4478272Y3586335D01*
X4456219Y3595470D01*
D02*
G37*
G36*
X5219000Y3070733D02*
X5196811Y3067812D01*
X5176133Y3059247D01*
X5158377Y3045623D01*
X5144753Y3027867D01*
X5136188Y3007189D01*
X5133267Y2985000D01*
Y2965000D01*
X5136188Y2942810D01*
X5144753Y2922133D01*
X5158377Y2904377D01*
X5176133Y2890753D01*
X5196811Y2882188D01*
X5219000Y2879267D01*
X5241189Y2882188D01*
X5261867Y2890753D01*
X5279623Y2904377D01*
X5293247Y2922133D01*
X5301812Y2942810D01*
X5304733Y2965000D01*
Y2985000D01*
X5301812Y3007189D01*
X5293247Y3027867D01*
X5279623Y3045623D01*
X5261867Y3059247D01*
X5241189Y3067812D01*
X5219000Y3070733D01*
D02*
G37*
G36*
X4965000D02*
X4942811Y3067812D01*
X4922133Y3059247D01*
X4904377Y3045623D01*
X4890753Y3027867D01*
X4882188Y3007189D01*
X4879267Y2985000D01*
Y2965000D01*
X4882188Y2942810D01*
X4890753Y2922133D01*
X4904377Y2904377D01*
X4922133Y2890753D01*
X4942811Y2882188D01*
X4965000Y2879267D01*
X4987189Y2882188D01*
X5007867Y2890753D01*
X5025623Y2904377D01*
X5039247Y2922133D01*
X5047812Y2942810D01*
X5050733Y2965000D01*
Y2985000D01*
X5047812Y3007189D01*
X5039247Y3027867D01*
X5025623Y3045623D01*
X5007867Y3059247D01*
X4987189Y3067812D01*
X4965000Y3070733D01*
D02*
G37*
G36*
X1675000Y3020819D02*
X1575000D01*
X1550200Y3017555D01*
X1527090Y3007982D01*
X1507245Y2992754D01*
X1492018Y2972910D01*
X1482445Y2949800D01*
X1479180Y2925000D01*
X1482445Y2900200D01*
X1492018Y2877090D01*
X1507245Y2857245D01*
X1527090Y2842018D01*
X1550200Y2832445D01*
X1575000Y2829181D01*
X1675000D01*
X1699800Y2832445D01*
X1722910Y2842018D01*
X1742754Y2857245D01*
X1757982Y2877090D01*
X1767555Y2900200D01*
X1770819Y2925000D01*
X1767555Y2949800D01*
X1757982Y2972910D01*
X1742754Y2992754D01*
X1722910Y3007982D01*
X1699800Y3017555D01*
X1675000Y3020819D01*
D02*
G37*
G36*
X1374217Y2912500D02*
X1237500D01*
Y2824137D01*
X1275000D01*
X1301105Y2827574D01*
X1325432Y2837650D01*
X1346321Y2853679D01*
X1362350Y2874569D01*
X1372426Y2898895D01*
X1374217Y2912500D01*
D02*
G37*
G36*
X1212500D02*
X1075783D01*
X1077574Y2898895D01*
X1087650Y2874569D01*
X1103679Y2853679D01*
X1124568Y2837650D01*
X1148895Y2827574D01*
X1175000Y2824137D01*
X1212500D01*
Y2912500D01*
D02*
G37*
G36*
X3561935Y3280000D02*
X3538065D01*
X3516013Y3270865D01*
X3499134Y3253987D01*
X3490000Y3231935D01*
Y3208065D01*
X3499134Y3186013D01*
X3516013Y3169134D01*
X3538065Y3160000D01*
X3561935D01*
X3583987Y3169134D01*
X3596643Y3181790D01*
X3636434Y3142000D01*
X3648011Y3134264D01*
X3661667Y3131547D01*
X3868485D01*
X4107889Y2892143D01*
X4099660Y2872275D01*
Y2848406D01*
X4108794Y2826353D01*
X4125673Y2809475D01*
X4147725Y2800340D01*
X4171595D01*
X4193647Y2809475D01*
X4210525Y2826353D01*
X4219660Y2848406D01*
Y2872275D01*
X4210525Y2894327D01*
X4193647Y2911206D01*
X4181651Y2916175D01*
X4175327Y2925640D01*
X3908500Y3192467D01*
X3896922Y3200202D01*
X3883266Y3202919D01*
X3676449D01*
X3634788Y3244580D01*
X3623211Y3252315D01*
X3609554Y3255032D01*
X3599821D01*
X3583987Y3270865D01*
X3561935Y3280000D01*
D02*
G37*
G36*
X1190216Y2695000D02*
X1171784D01*
X1153981Y2690230D01*
X1138019Y2681014D01*
X1124986Y2667981D01*
X1115770Y2652019D01*
X1111000Y2634216D01*
Y2615784D01*
X1115770Y2597981D01*
X1124986Y2582019D01*
X1138019Y2568986D01*
X1153981Y2559771D01*
X1171784Y2555000D01*
X1190216D01*
X1208019Y2559771D01*
X1223981Y2568986D01*
X1237014Y2582019D01*
X1246229Y2597981D01*
X1251000Y2615784D01*
Y2634216D01*
X1246229Y2652019D01*
X1237014Y2667981D01*
X1223981Y2681014D01*
X1208019Y2690230D01*
X1190216Y2695000D01*
D02*
G37*
G36*
X1276743Y1510000D02*
X1243256D01*
X1210413Y1503467D01*
X1179475Y1490652D01*
X1151631Y1472048D01*
X1127952Y1448369D01*
X1109348Y1420525D01*
X1096533Y1389587D01*
X1090000Y1356744D01*
Y1323257D01*
X1096533Y1290413D01*
X1109348Y1259475D01*
X1127952Y1231632D01*
X1151631Y1207953D01*
X1179475Y1189348D01*
X1210413Y1176533D01*
X1243256Y1170000D01*
X1276743D01*
X1309587Y1176533D01*
X1340525Y1189348D01*
X1368368Y1207953D01*
X1392047Y1231632D01*
X1410652Y1259475D01*
X1423467Y1290413D01*
X1430000Y1323257D01*
Y1356744D01*
X1423467Y1389587D01*
X1410652Y1420525D01*
X1392047Y1448369D01*
X1368368Y1472048D01*
X1340525Y1490652D01*
X1309587Y1503467D01*
X1276743Y1510000D01*
D02*
G37*
G36*
X8106743Y1210000D02*
X8073256D01*
X8040413Y1203467D01*
X8009475Y1190652D01*
X7981631Y1172048D01*
X7957952Y1148369D01*
X7939348Y1120525D01*
X7926533Y1089587D01*
X7920000Y1056744D01*
Y1023257D01*
X7926533Y990413D01*
X7939348Y959475D01*
X7957952Y931632D01*
X7981631Y907953D01*
X8009475Y889348D01*
X8040413Y876533D01*
X8073256Y870000D01*
X8106743D01*
X8139587Y876533D01*
X8170525Y889348D01*
X8198368Y907953D01*
X8222047Y931632D01*
X8240652Y959475D01*
X8253467Y990413D01*
X8260000Y1023257D01*
Y1056744D01*
X8253467Y1089587D01*
X8240652Y1120525D01*
X8222047Y1148369D01*
X8198368Y1172048D01*
X8170525Y1190652D01*
X8139587Y1203467D01*
X8106743Y1210000D01*
D02*
G37*
G36*
X6256743D02*
X6223257D01*
X6190413Y1203467D01*
X6159475Y1190652D01*
X6131631Y1172048D01*
X6107952Y1148369D01*
X6089348Y1120525D01*
X6076533Y1089587D01*
X6070000Y1056744D01*
Y1023257D01*
X6076533Y990413D01*
X6089348Y959475D01*
X6107952Y931632D01*
X6131631Y907953D01*
X6159475Y889348D01*
X6190413Y876533D01*
X6223257Y870000D01*
X6256743D01*
X6289587Y876533D01*
X6320525Y889348D01*
X6348369Y907953D01*
X6372047Y931632D01*
X6390652Y959475D01*
X6403467Y990413D01*
X6410000Y1023257D01*
Y1056744D01*
X6403467Y1089587D01*
X6390652Y1120525D01*
X6372047Y1148369D01*
X6348369Y1172048D01*
X6320525Y1190652D01*
X6289587Y1203467D01*
X6256743Y1210000D01*
D02*
G37*
G36*
X4406743D02*
X4373256D01*
X4340412Y1203467D01*
X4309474Y1190652D01*
X4281631Y1172048D01*
X4257952Y1148369D01*
X4239348Y1120525D01*
X4226533Y1089587D01*
X4220000Y1056744D01*
Y1023257D01*
X4226533Y990413D01*
X4239348Y959475D01*
X4257952Y931632D01*
X4281631Y907953D01*
X4309474Y889348D01*
X4340412Y876533D01*
X4373256Y870000D01*
X4406743D01*
X4439587Y876533D01*
X4470525Y889348D01*
X4498368Y907953D01*
X4522047Y931632D01*
X4540652Y959475D01*
X4553466Y990413D01*
X4560000Y1023257D01*
Y1056744D01*
X4553466Y1089587D01*
X4540652Y1120525D01*
X4522047Y1148369D01*
X4498368Y1172048D01*
X4470525Y1190652D01*
X4439587Y1203467D01*
X4406743Y1210000D01*
D02*
G37*
G36*
X2556743D02*
X2523256D01*
X2490413Y1203467D01*
X2459475Y1190652D01*
X2431631Y1172048D01*
X2407952Y1148369D01*
X2389348Y1120525D01*
X2376533Y1089587D01*
X2370000Y1056744D01*
Y1023257D01*
X2376533Y990413D01*
X2389348Y959475D01*
X2407952Y931632D01*
X2431631Y907953D01*
X2459475Y889348D01*
X2490413Y876533D01*
X2523256Y870000D01*
X2556743D01*
X2589587Y876533D01*
X2620525Y889348D01*
X2648368Y907953D01*
X2672047Y931632D01*
X2690652Y959475D01*
X2703467Y990413D01*
X2710000Y1023257D01*
Y1056744D01*
X2703467Y1089587D01*
X2690652Y1120525D01*
X2672047Y1148369D01*
X2648368Y1172048D01*
X2620525Y1190652D01*
X2589587Y1203467D01*
X2556743Y1210000D01*
D02*
G37*
G36*
X3300235Y808000D02*
X3295495D01*
Y645503D01*
X3457999D01*
Y650236D01*
X3451274Y684046D01*
X3438083Y715894D01*
X3418931Y744556D01*
X3394556Y768931D01*
X3365893Y788083D01*
X3334045Y801275D01*
X3300235Y808000D01*
D02*
G37*
G36*
X3270496D02*
X3265764D01*
X3231954Y801275D01*
X3200106Y788083D01*
X3171443Y768931D01*
X3147068Y744556D01*
X3127917Y715894D01*
X3114725Y684046D01*
X3108000Y650236D01*
Y645503D01*
X3270496D01*
Y808000D01*
D02*
G37*
G36*
X1450236D02*
X1445497D01*
Y645501D01*
X1608000D01*
Y650236D01*
X1601274Y684046D01*
X1588083Y715894D01*
X1568931Y744556D01*
X1544556Y768931D01*
X1515893Y788083D01*
X1484045Y801275D01*
X1450236Y808000D01*
D02*
G37*
G36*
X1420498D02*
X1415764D01*
X1381954Y801275D01*
X1350106Y788083D01*
X1321444Y768931D01*
X1297068Y744556D01*
X1277917Y715894D01*
X1264725Y684046D01*
X1258000Y650236D01*
Y645501D01*
X1420498D01*
Y808000D01*
D02*
G37*
G36*
X7000236D02*
X6995499D01*
Y645499D01*
X7158000D01*
Y650236D01*
X7151274Y684046D01*
X7138083Y715894D01*
X7118931Y744556D01*
X7094556Y768931D01*
X7065893Y788083D01*
X7034045Y801275D01*
X7000236Y808000D01*
D02*
G37*
G36*
X6970499D02*
X6965764D01*
X6931954Y801275D01*
X6900106Y788083D01*
X6871444Y768931D01*
X6847068Y744556D01*
X6827917Y715894D01*
X6814725Y684046D01*
X6808000Y650236D01*
Y645499D01*
X6970499D01*
Y808000D01*
D02*
G37*
G36*
X5150236D02*
X5145501D01*
Y645497D01*
X5308000D01*
Y650236D01*
X5301275Y684046D01*
X5288083Y715894D01*
X5268931Y744556D01*
X5244556Y768931D01*
X5215894Y788083D01*
X5184046Y801275D01*
X5150236Y808000D01*
D02*
G37*
G36*
X5120502D02*
X5115764D01*
X5081954Y801275D01*
X5050106Y788083D01*
X5021444Y768931D01*
X4997068Y744556D01*
X4977917Y715894D01*
X4964725Y684046D01*
X4958000Y650236D01*
Y645497D01*
X5120502D01*
Y808000D01*
D02*
G37*
G36*
X8829513Y975000D02*
X8812500D01*
Y612500D01*
X9175000D01*
Y629513D01*
X9165766Y687813D01*
X9147526Y743950D01*
X9120729Y796543D01*
X9086034Y844296D01*
X9044296Y886034D01*
X8996543Y920729D01*
X8943950Y947526D01*
X8887813Y965766D01*
X8829513Y975000D01*
D02*
G37*
G36*
X8787500D02*
X8770487D01*
X8712187Y965766D01*
X8656050Y947526D01*
X8603457Y920729D01*
X8555704Y886034D01*
X8513966Y844296D01*
X8479271Y796543D01*
X8452474Y743950D01*
X8434234Y687813D01*
X8425000Y629513D01*
Y612500D01*
X8787500D01*
Y975000D01*
D02*
G37*
G36*
X629513D02*
X612500D01*
Y612500D01*
X975000D01*
Y629513D01*
X965766Y687813D01*
X947526Y743950D01*
X920729Y796543D01*
X886034Y844296D01*
X844296Y886034D01*
X796543Y920729D01*
X743950Y947526D01*
X687813Y965766D01*
X629513Y975000D01*
D02*
G37*
G36*
X587500D02*
X570487D01*
X512187Y965766D01*
X456050Y947526D01*
X403457Y920729D01*
X355704Y886034D01*
X313966Y844296D01*
X279271Y796543D01*
X252474Y743950D01*
X234234Y687813D01*
X225000Y629513D01*
Y612500D01*
X587500D01*
Y975000D01*
D02*
G37*
G36*
X7158000Y620500D02*
X6995499D01*
Y458000D01*
X7000236D01*
X7034045Y464725D01*
X7065893Y477917D01*
X7094556Y497069D01*
X7118931Y521444D01*
X7138083Y550106D01*
X7151274Y581954D01*
X7158000Y615764D01*
Y620500D01*
D02*
G37*
G36*
X6970499D02*
X6808000D01*
Y615764D01*
X6814725Y581954D01*
X6827917Y550106D01*
X6847068Y521444D01*
X6871444Y497069D01*
X6900106Y477917D01*
X6931954Y464725D01*
X6965764Y458000D01*
X6970499D01*
Y620500D01*
D02*
G37*
G36*
X5308000Y620498D02*
X5145501D01*
Y458000D01*
X5150236D01*
X5184046Y464725D01*
X5215894Y477917D01*
X5244556Y497069D01*
X5268931Y521444D01*
X5288083Y550106D01*
X5301275Y581954D01*
X5308000Y615764D01*
Y620498D01*
D02*
G37*
G36*
X5120502D02*
X4958000D01*
Y615764D01*
X4964725Y581954D01*
X4977917Y550106D01*
X4997068Y521444D01*
X5021444Y497069D01*
X5050106Y477917D01*
X5081954Y464725D01*
X5115764Y458000D01*
X5120502D01*
Y620498D01*
D02*
G37*
G36*
X3457999Y620503D02*
X3295495D01*
Y458000D01*
X3300235D01*
X3334045Y464725D01*
X3365893Y477917D01*
X3394556Y497069D01*
X3418931Y521444D01*
X3438083Y550106D01*
X3451274Y581954D01*
X3457999Y615764D01*
Y620503D01*
D02*
G37*
G36*
X3270496D02*
X3108000D01*
Y615764D01*
X3114725Y581954D01*
X3127917Y550106D01*
X3147068Y521444D01*
X3171443Y497069D01*
X3200106Y477917D01*
X3231954Y464725D01*
X3265764Y458000D01*
X3270496D01*
Y620503D01*
D02*
G37*
G36*
X1608000Y620501D02*
X1445497D01*
Y458000D01*
X1450236D01*
X1484045Y464725D01*
X1515893Y477917D01*
X1544556Y497069D01*
X1568931Y521444D01*
X1588083Y550106D01*
X1601274Y581954D01*
X1608000Y615764D01*
Y620501D01*
D02*
G37*
G36*
X1420498D02*
X1258000D01*
Y615764D01*
X1264725Y581954D01*
X1277917Y550106D01*
X1297068Y521444D01*
X1321444Y497069D01*
X1350106Y477917D01*
X1381954Y464725D01*
X1415764Y458000D01*
X1420498D01*
Y620501D01*
D02*
G37*
G36*
X7706743Y630000D02*
X7673256D01*
X7640413Y623467D01*
X7609475Y610652D01*
X7581631Y592048D01*
X7557952Y568369D01*
X7539348Y540525D01*
X7526533Y509587D01*
X7520000Y476744D01*
Y443257D01*
X7526533Y410413D01*
X7539348Y379475D01*
X7557952Y351632D01*
X7581631Y327953D01*
X7609475Y309348D01*
X7640413Y296533D01*
X7673256Y290000D01*
X7706743D01*
X7739587Y296533D01*
X7770525Y309348D01*
X7798368Y327953D01*
X7822047Y351632D01*
X7840652Y379475D01*
X7853467Y410413D01*
X7860000Y443257D01*
Y476744D01*
X7853467Y509587D01*
X7840652Y540525D01*
X7822047Y568369D01*
X7798368Y592048D01*
X7770525Y610652D01*
X7739587Y623467D01*
X7706743Y630000D01*
D02*
G37*
G36*
X5856743D02*
X5823257D01*
X5790413Y623467D01*
X5759475Y610652D01*
X5731631Y592048D01*
X5707953Y568369D01*
X5689348Y540525D01*
X5676533Y509587D01*
X5670000Y476744D01*
Y443257D01*
X5676533Y410413D01*
X5689348Y379475D01*
X5707953Y351632D01*
X5731631Y327953D01*
X5759475Y309348D01*
X5790413Y296533D01*
X5823257Y290000D01*
X5856743D01*
X5889587Y296533D01*
X5920525Y309348D01*
X5948369Y327953D01*
X5972047Y351632D01*
X5990652Y379475D01*
X6003467Y410413D01*
X6010000Y443257D01*
Y476744D01*
X6003467Y509587D01*
X5990652Y540525D01*
X5972047Y568369D01*
X5948369Y592048D01*
X5920525Y610652D01*
X5889587Y623467D01*
X5856743Y630000D01*
D02*
G37*
G36*
X4006743D02*
X3973256D01*
X3940412Y623467D01*
X3909475Y610652D01*
X3881631Y592048D01*
X3857952Y568369D01*
X3839348Y540525D01*
X3826533Y509587D01*
X3820000Y476744D01*
Y443257D01*
X3826533Y410413D01*
X3839348Y379475D01*
X3857952Y351632D01*
X3881631Y327953D01*
X3909475Y309348D01*
X3940412Y296533D01*
X3973256Y290000D01*
X4006743D01*
X4039587Y296533D01*
X4070525Y309348D01*
X4098368Y327953D01*
X4122047Y351632D01*
X4140652Y379475D01*
X4153466Y410413D01*
X4160000Y443257D01*
Y476744D01*
X4153466Y509587D01*
X4140652Y540525D01*
X4122047Y568369D01*
X4098368Y592048D01*
X4070525Y610652D01*
X4039587Y623467D01*
X4006743Y630000D01*
D02*
G37*
G36*
X2156743D02*
X2123256D01*
X2090413Y623467D01*
X2059475Y610652D01*
X2031631Y592048D01*
X2007952Y568369D01*
X1989348Y540525D01*
X1976533Y509587D01*
X1970000Y476744D01*
Y443257D01*
X1976533Y410413D01*
X1989348Y379475D01*
X2007952Y351632D01*
X2031631Y327953D01*
X2059475Y309348D01*
X2090413Y296533D01*
X2123256Y290000D01*
X2156743D01*
X2189587Y296533D01*
X2220525Y309348D01*
X2248368Y327953D01*
X2272047Y351632D01*
X2290652Y379475D01*
X2303467Y410413D01*
X2310000Y443257D01*
Y476744D01*
X2303467Y509587D01*
X2290652Y540525D01*
X2272047Y568369D01*
X2248368Y592048D01*
X2220525Y610652D01*
X2189587Y623467D01*
X2156743Y630000D01*
D02*
G37*
G36*
X9175000Y587500D02*
X8812500D01*
Y225000D01*
X8829513D01*
X8887813Y234234D01*
X8943950Y252474D01*
X8996543Y279271D01*
X9044296Y313966D01*
X9086034Y355704D01*
X9120729Y403457D01*
X9147526Y456050D01*
X9165766Y512187D01*
X9175000Y570487D01*
Y587500D01*
D02*
G37*
G36*
X8787500D02*
X8425000D01*
Y570487D01*
X8434234Y512187D01*
X8452474Y456050D01*
X8479271Y403457D01*
X8513966Y355704D01*
X8555704Y313966D01*
X8603457Y279271D01*
X8656050Y252474D01*
X8712187Y234234D01*
X8770487Y225000D01*
X8787500D01*
Y587500D01*
D02*
G37*
G36*
X975000D02*
X612500D01*
Y225000D01*
X629513D01*
X687813Y234234D01*
X743950Y252474D01*
X796543Y279271D01*
X844296Y313966D01*
X886034Y355704D01*
X920729Y403457D01*
X947526Y456050D01*
X965766Y512187D01*
X975000Y570487D01*
Y587500D01*
D02*
G37*
G36*
X587500D02*
X225000D01*
Y570487D01*
X234234Y512187D01*
X252474Y456050D01*
X279271Y403457D01*
X313966Y355704D01*
X355704Y313966D01*
X403457Y279271D01*
X456050Y252474D01*
X512187Y234234D01*
X570487Y225000D01*
X587500D01*
Y587500D01*
D02*
G37*
%LPD*%
D27*
X990000Y5500000D02*
X1519201D01*
X825000Y5325000D02*
Y5333118D01*
X840000Y5348118D01*
Y5350000D01*
X990000Y5500000D01*
X1519201D02*
X1573490Y5445710D01*
X820000Y2270000D02*
Y4555147D01*
X989852Y4725000D02*
X1275000D01*
X820000Y4555147D02*
X989852Y4725000D01*
X820000Y2270000D02*
X1545000Y1545000D01*
X7800000Y8530000D02*
X7875881Y8454119D01*
X6049999Y8530000D02*
X7800000D01*
X7559587Y6634250D02*
X7875881Y6950545D01*
X7559587Y6449811D02*
Y6634250D01*
X7875881Y6950545D02*
Y8454119D01*
X6050000Y7767811D02*
Y8529999D01*
Y7767811D02*
X6052807Y7765005D01*
X4382000Y6140527D02*
Y6143000D01*
Y6140527D02*
X4397000Y6125526D01*
Y6117408D02*
Y6125526D01*
X4146497Y6378503D02*
X4382000Y6143000D01*
X1573490Y5326510D02*
X1575000Y5325000D01*
X1573490Y5326510D02*
Y5445710D01*
X3077504Y6378503D02*
X4146497D01*
X2974000Y6275000D02*
X3077504Y6378503D01*
X7465771Y1540000D02*
X7617443Y1691672D01*
X7015000Y3055000D02*
X7617443Y2452557D01*
Y1691672D02*
Y2452557D01*
X7015000Y5905224D02*
X7559587Y6449811D01*
X7015000Y4800000D02*
Y5905224D01*
Y3055000D02*
Y4800000D01*
X1545000Y1545000D02*
X2574289D01*
X6120000D02*
Y2232426D01*
Y1545000D02*
X6915000D01*
X4300000D02*
X6120000D01*
X7105740Y1510636D02*
X7135104Y1540000D01*
X7000844Y1510636D02*
X7105740D01*
X7135104Y1540000D02*
X7465771D01*
X6915000Y1545000D02*
X7010000Y1640000D01*
X6995104Y1504896D02*
X7000844Y1510636D01*
X4317574Y2250000D02*
X4400000D01*
X4300000Y2232426D02*
X4317574Y2250000D01*
X4300000Y1545000D02*
Y2232426D01*
X6137574Y2250000D02*
X6230000D01*
X6120000Y2232426D02*
X6137574Y2250000D01*
X6049999Y8530000D02*
X6050000Y8529999D01*
X2574289Y1545000D02*
X4300000D01*
X2558683Y2248683D02*
X2560000Y2250000D01*
X2498683Y2248683D02*
X2558683D01*
X2450000Y2200000D02*
X2498683Y2248683D01*
X2450000Y1669290D02*
X2574289Y1545000D01*
X2450000Y1669290D02*
Y2200000D01*
D28*
X4150093Y2869907D02*
X4159660Y2860340D01*
X3883266Y3167233D02*
X4150093Y2900406D01*
Y2869907D02*
Y2900406D01*
X3609554Y3219346D02*
X3661667Y3167233D01*
X3550654Y3219346D02*
X3609554D01*
X3661667Y3167233D02*
X3883266D01*
X3550000Y3220000D02*
X3550654Y3219346D01*
X401360Y4317426D02*
X1087114Y5003180D01*
X401360Y4258640D02*
Y4317426D01*
Y4258640D02*
X410000Y4250000D01*
X1087114Y5003180D02*
X1203180D01*
X1220000Y5020000D01*
X1015000Y4835000D02*
X1515710D01*
X510000Y4320000D02*
Y4330000D01*
X1015000Y4835000D01*
X1572472Y4760000D02*
X1610000D01*
X1515710Y4835000D02*
X1552039Y4798671D01*
Y4780433D02*
X1572472Y4760000D01*
X1552039Y4780433D02*
Y4798671D01*
X5319504Y6806550D02*
X5480426D01*
X5319504D02*
X5327793Y6814839D01*
X5480426Y6806550D02*
X5694818Y6592158D01*
Y6484818D02*
Y6592158D01*
X4969604Y6348335D02*
Y6529383D01*
X4984742Y6544522D02*
Y7290258D01*
X4975000Y7300000D02*
X4984742Y7290258D01*
X4969604Y6529383D02*
X4984742Y6544522D01*
X6219532Y4800000D02*
X7015000D01*
X6210000Y4790467D02*
X6219532Y4800000D01*
X3564530Y6450000D02*
X4198809D01*
X4562076Y5995924D02*
Y6086733D01*
X4198809Y6450000D02*
X4562076Y6086733D01*
Y5995924D02*
X4583000Y5975000D01*
X5771487Y5987500D02*
X5973950Y5785037D01*
X4112000Y5460000D02*
Y5684000D01*
X5044293Y5676669D02*
Y5765231D01*
X5039375Y5671751D02*
X5044293Y5676669D01*
X4949524Y5860000D02*
X5044293Y5765231D01*
X5525000Y5987500D02*
X5771487D01*
X4688000Y5860000D02*
X4949524D01*
X4685789Y5862211D02*
X4688000Y5860000D01*
X5420000Y5450000D02*
Y6210000D01*
X5694818Y6484818D01*
X4143961Y4573827D02*
X4146000Y4575865D01*
X4087830Y4573827D02*
X4143961D01*
X3770000Y4255996D02*
X4087830Y4573827D01*
X3553033Y6438503D02*
X3564530Y6450000D01*
X2936497Y6438503D02*
X3553033D01*
X2651134Y6723866D02*
X2936497Y6438503D01*
X4444285Y3532854D02*
Y3535470D01*
Y3532854D02*
X4711000Y3266139D01*
Y2975000D02*
Y3266139D01*
X4233424Y3392079D02*
X4240762Y3384741D01*
X4233424Y3392079D02*
Y3437611D01*
X4156034Y3515000D02*
X4233424Y3437611D01*
X4001000Y4024700D02*
X4002539D01*
X4427839Y4450000D01*
X3770000Y3909700D02*
Y4255996D01*
X4421000Y4525000D02*
X5156634D01*
X5192320Y4489314D01*
X5199208D01*
X3670014Y3515000D02*
X4156034D01*
X4427839Y4450000D02*
X4650000D01*
X3821000Y5975000D02*
X4112000Y5684000D01*
X4731000Y5380000D02*
Y5680000D01*
X4661000Y5750000D02*
X4731000Y5680000D01*
X2651134Y6723866D02*
Y6745806D01*
X2646940Y6750000D02*
X2651134Y6745806D01*
D29*
X4862140Y6400481D02*
Y6549226D01*
X4727000Y6684366D02*
Y6807734D01*
Y6684366D02*
X4862140Y6549226D01*
X4748548Y6829283D02*
Y6845519D01*
X4727000Y6807734D02*
X4748548Y6829283D01*
X5114293Y5587755D02*
Y5758871D01*
X4981538Y5455000D02*
X5114293Y5587755D01*
X5003120Y5870043D02*
X5114293Y5758871D01*
X5003120Y5870043D02*
Y5964443D01*
X4855314Y6112250D02*
X5003120Y5964443D01*
X4855314Y6393655D02*
X4862140Y6400481D01*
X4855314Y6112250D02*
Y6393655D01*
D31*
X1640000Y7625273D02*
D03*
X1625000Y5325000D02*
D03*
Y3825000D02*
D03*
D32*
X1240000Y7625273D02*
D03*
X1640000Y7325273D02*
D03*
X1240000D02*
D03*
X1640000Y7025273D02*
D03*
X1240000D02*
D03*
X1640000Y6725273D02*
D03*
X1240000D02*
D03*
X1225000Y5325000D02*
D03*
X1625000Y5025000D02*
D03*
X1225000D02*
D03*
X1625000Y4725000D02*
D03*
X1225000D02*
D03*
Y2925000D02*
D03*
X1625000D02*
D03*
X1225000Y3225000D02*
D03*
X1625000D02*
D03*
X1225000Y3525000D02*
D03*
X1625000D02*
D03*
X1225000Y3825000D02*
D03*
D33*
X1196000Y7925273D02*
D03*
Y6425273D02*
D03*
X1181000Y5625000D02*
D03*
Y4425000D02*
D03*
Y2625000D02*
D03*
Y4125000D02*
D03*
D34*
X7450000Y1100000D02*
D03*
X7450000Y5275000D02*
D03*
Y7125000D02*
D03*
X7450000Y8975000D02*
D03*
X5600000D02*
D03*
X1900000Y1100000D02*
D03*
Y9000000D02*
D03*
X5600000Y1100000D02*
D03*
X3750000Y8975000D02*
D03*
Y1100000D02*
D03*
D35*
X6983000Y633000D02*
D03*
X7690000Y460000D02*
D03*
X6810000Y1340000D02*
D03*
X7390000Y1740000D02*
D03*
X8090000Y1040000D02*
D03*
X7917000Y4808000D02*
D03*
X8090000Y5515000D02*
D03*
X7210000Y4635000D02*
D03*
X6810000Y5215000D02*
D03*
X7509999Y5915000D02*
D03*
X7917000Y6658000D02*
D03*
X8090000Y7365000D02*
D03*
X7210000Y6485000D02*
D03*
X6810000Y7065000D02*
D03*
X7509999Y7765000D02*
D03*
X7917000Y9442000D02*
D03*
X7210000Y9615000D02*
D03*
X8090000Y8735000D02*
D03*
X7510000Y8335000D02*
D03*
X6810000Y9035000D02*
D03*
X6067000Y9442000D02*
D03*
X5360000Y9615000D02*
D03*
X6240000Y8735000D02*
D03*
X5660000Y8335000D02*
D03*
X4960000Y9035000D02*
D03*
X1433000Y633000D02*
D03*
X2140000Y460000D02*
D03*
X1260000Y1340000D02*
D03*
X1840000Y1740000D02*
D03*
X2540000Y1040000D02*
D03*
X2367000Y9467000D02*
D03*
X1660000Y9640000D02*
D03*
X2540000Y8760000D02*
D03*
X1960000Y8360000D02*
D03*
X1260000Y9060000D02*
D03*
X5133000Y633000D02*
D03*
X5840000Y460000D02*
D03*
X4960000Y1340000D02*
D03*
X5540000Y1740000D02*
D03*
X6240000Y1040000D02*
D03*
X4217000Y9442000D02*
D03*
X3510000Y9615000D02*
D03*
X4390000Y8735000D02*
D03*
X3809999Y8335000D02*
D03*
X3110000Y9035000D02*
D03*
X3283000Y633000D02*
D03*
X3990000Y460000D02*
D03*
X3110000Y1340000D02*
D03*
X3690000Y1740000D02*
D03*
X4390000Y1040000D02*
D03*
D36*
X5219000Y2975000D02*
D03*
X4965000D02*
D03*
X5229000Y7300000D02*
D03*
X4975000D02*
D03*
X5225000Y7875000D02*
D03*
X4971000D02*
D03*
D37*
X4711000Y2975000D02*
D03*
X4721000Y7300000D02*
D03*
X4717000Y7875000D02*
D03*
D38*
X3059000Y6737000D02*
D03*
X3313000D02*
D03*
X3567000D02*
D03*
X3821000D02*
D03*
X4075000D02*
D03*
X4329000D02*
D03*
X4583000D02*
D03*
X4837000D02*
D03*
Y5975000D02*
D03*
X4583000D02*
D03*
X4329000D02*
D03*
X4075000D02*
D03*
X3821000D02*
D03*
X3567000D02*
D03*
X3313000D02*
D03*
X3059000D02*
D03*
D39*
X2622000Y6300000D02*
D03*
Y6046000D02*
D03*
Y6792000D02*
D03*
Y7046000D02*
D03*
X6389144Y7918000D02*
D03*
Y7664000D02*
D03*
D40*
X2622000Y5792000D02*
D03*
Y7300000D02*
D03*
X6389144Y7410000D02*
D03*
D41*
X599999Y9400000D02*
D03*
X8639999D02*
D03*
X8800000Y600000D02*
D03*
X600000D02*
D03*
D42*
X1758903Y3050000D02*
D03*
X1432800Y3040000D02*
D03*
X1460000Y2800000D02*
D03*
X1585000Y2770000D02*
D03*
X1722910D02*
D03*
X1890694Y2681014D02*
D03*
X2010000Y2565000D02*
D03*
X2280000Y2578656D02*
D03*
X2181000Y2710000D02*
D03*
X2061444Y2824137D02*
D03*
X1960000Y2938656D02*
D03*
X3230000Y3120000D02*
D03*
X2960000Y3110000D02*
D03*
X2620000D02*
D03*
X2280000Y3120000D02*
D03*
X1960000Y3110000D02*
D03*
X4159660Y2860340D02*
D03*
X3550000Y3220000D02*
D03*
X3687800Y3247167D02*
D03*
X3852200Y3082233D02*
D03*
Y3242233D02*
D03*
X730000Y4770000D02*
D03*
X410000Y4250000D02*
D03*
X733869Y5217803D02*
D03*
X733546Y3818125D02*
D03*
Y4378125D02*
D03*
X510000Y4320000D02*
D03*
X7657334Y6611789D02*
D03*
X7960881Y7644859D02*
D03*
Y7924859D02*
D03*
Y8204860D02*
D03*
Y7084859D02*
D03*
X7946348Y8501652D02*
D03*
X7690000Y1492961D02*
D03*
X7085000Y1410000D02*
D03*
X4160000Y810000D02*
D03*
X1580000Y1448369D02*
D03*
X7800000Y8660000D02*
D03*
X5140000Y8751743D02*
D03*
X7738546Y8424399D02*
D03*
Y7864399D02*
D03*
Y8144399D02*
D03*
Y7584398D02*
D03*
X5319504Y6806550D02*
D03*
X6319314Y7145525D02*
D03*
X6264385Y6946228D02*
D03*
X5128690Y7064065D02*
D03*
X5772602Y6586313D02*
D03*
X5475000Y7267810D02*
D03*
X6159475Y8005914D02*
D03*
X5442088Y8438546D02*
D03*
X5952807Y7765000D02*
D03*
X6052807Y7765005D02*
D03*
X4028026Y7865000D02*
D03*
X6210000Y4790467D02*
D03*
X6176012Y4986269D02*
D03*
X5400000Y7690000D02*
D03*
X5202811Y7472574D02*
D03*
X3480218Y1910000D02*
D03*
X2880000Y5716209D02*
D03*
X2770000Y5894981D02*
D03*
X3450000Y5620000D02*
D03*
X3890525Y7458203D02*
D03*
X3495000Y8204012D02*
D03*
X3579999Y7786190D02*
D03*
X2044202Y7689134D02*
D03*
X2920995Y7728065D02*
D03*
X2495466Y7546000D02*
D03*
X2770000D02*
D03*
X4397000Y6117408D02*
D03*
X5973950Y5785037D02*
D03*
X4112000Y5460000D02*
D03*
X5039375Y5671751D02*
D03*
X4806673Y5765231D02*
D03*
X5525000Y5885922D02*
D03*
Y5987500D02*
D03*
X5094965Y5894980D02*
D03*
X5292813D02*
D03*
X6095219Y5780000D02*
D03*
X5839991Y5590000D02*
D03*
X4146000Y4575865D02*
D03*
X6930000Y8190000D02*
D03*
X7235000D02*
D03*
X5520383Y7825000D02*
D03*
X4839999Y7520000D02*
D03*
X4962504Y7670000D02*
D03*
X4163375Y7754319D02*
D03*
X4502813Y6268530D02*
D03*
X4855314Y6393655D02*
D03*
X4755916Y6404618D02*
D03*
X4969604Y6348335D02*
D03*
X4389992Y5389989D02*
D03*
X4600840Y3874738D02*
D03*
X5456000Y8171533D02*
D03*
X2460000Y6022000D02*
D03*
X8370000Y9010000D02*
D03*
X5475000Y7472574D02*
D03*
X3587000Y7371000D02*
D03*
X1900000Y5667981D02*
D03*
X2840000Y6420000D02*
D03*
X2658987Y6567754D02*
D03*
X4328213Y6527778D02*
D03*
X4028248Y6290000D02*
D03*
X4022635Y6527778D02*
D03*
X3943187Y6093718D02*
D03*
X3058925Y6513503D02*
D03*
X3869026Y6527778D02*
D03*
X4172001Y6531000D02*
D03*
X3599813D02*
D03*
X3373077Y6241013D02*
D03*
X6055548Y5570000D02*
D03*
X6255000Y5330000D02*
D03*
X6485855Y5470000D02*
D03*
X6395000Y5590090D02*
D03*
X6269035Y5704134D02*
D03*
X6585000Y6246000D02*
D03*
X6450233Y6118553D02*
D03*
X6331000Y5999435D02*
D03*
X6210000Y5886220D02*
D03*
X5837745Y2950000D02*
D03*
X5800000Y3210000D02*
D03*
X5400179Y4399134D02*
D03*
X5441549Y4590401D02*
D03*
X4738355Y5053248D02*
D03*
X4876685Y5391934D02*
D03*
X3774837Y4821279D02*
D03*
X4130451Y4745000D02*
D03*
X5255000Y4356741D02*
D03*
X4444285Y3535470D02*
D03*
X4197426Y4050000D02*
D03*
X4240762Y3384741D02*
D03*
X4001000Y4024700D02*
D03*
X6680000Y6720000D02*
D03*
X7121516Y8621454D02*
D03*
X6841516D02*
D03*
X6561516D02*
D03*
X6001515D02*
D03*
X5161515D02*
D03*
X4881514D02*
D03*
X4704502Y8700000D02*
D03*
X4041514Y8621454D02*
D03*
X3449004Y8627953D02*
D03*
X3243937Y8473273D02*
D03*
X3045947Y8275283D02*
D03*
X2806149Y8130725D02*
D03*
X2526149D02*
D03*
X2318546Y7942839D02*
D03*
X2632000Y7730000D02*
D03*
X2806149Y7915758D02*
D03*
X3274402Y7780000D02*
D03*
X3226057Y8196721D02*
D03*
X3424046Y8394711D02*
D03*
X4133546Y8204012D02*
D03*
X3906007Y7754319D02*
D03*
X4523000Y7774256D02*
D03*
X4322087Y8285413D02*
D03*
Y8438546D02*
D03*
X4510000D02*
D03*
X4882088D02*
D03*
X5162088D02*
D03*
X5958546Y8288586D02*
D03*
X6141454Y8263969D02*
D03*
X6360367Y8438546D02*
D03*
X6640367D02*
D03*
X6920367D02*
D03*
X7200367Y8438594D02*
D03*
X7468133Y6538147D02*
D03*
X7098993Y6118553D02*
D03*
X6923546Y5900337D02*
D03*
Y5620337D02*
D03*
X6701631Y4914492D02*
D03*
X6427746Y4893471D02*
D03*
X6247236Y5107518D02*
D03*
X6275000Y4440000D02*
D03*
X6690000Y4699533D02*
D03*
X6923546Y4578265D02*
D03*
Y4298264D02*
D03*
Y4018264D02*
D03*
Y3178264D02*
D03*
X7023827Y2916837D02*
D03*
X7221817Y2718847D02*
D03*
X7419807Y2520857D02*
D03*
X7522047Y1920000D02*
D03*
X6810711Y2355964D02*
D03*
X6598546Y2173246D02*
D03*
Y1893245D02*
D03*
X6486929Y1636454D02*
D03*
X6211454Y1686589D02*
D03*
Y1966590D02*
D03*
X5849106Y1991653D02*
D03*
X6028546Y1776708D02*
D03*
X5786205Y1636454D02*
D03*
X5226205D02*
D03*
X4946205D02*
D03*
X4666205D02*
D03*
X4391454Y1690419D02*
D03*
Y1970419D02*
D03*
X4041605Y1983542D02*
D03*
X4208546Y1758751D02*
D03*
X3956666Y1636454D02*
D03*
X3396666D02*
D03*
X3116665D02*
D03*
X2836665D02*
D03*
X2561432Y1687903D02*
D03*
X2541454Y1967190D02*
D03*
X2355788Y2176781D02*
D03*
X2110392Y2041944D02*
D03*
X2358546Y1912252D02*
D03*
X2310220Y1636454D02*
D03*
X2030220D02*
D03*
X1487108Y1732227D02*
D03*
X1289118Y1930217D02*
D03*
X1091128Y2128207D02*
D03*
X916454Y2347042D02*
D03*
Y2627042D02*
D03*
Y2907043D02*
D03*
Y3187043D02*
D03*
Y3467043D02*
D03*
Y3747043D02*
D03*
Y4027044D02*
D03*
Y4307044D02*
D03*
X1105549Y4513546D02*
D03*
X1364539Y4407131D02*
D03*
X1562529Y4209141D02*
D03*
X2039903Y3988546D02*
D03*
X2319903D02*
D03*
X2599904D02*
D03*
X2879904D02*
D03*
X3159904D02*
D03*
X1631003Y5182800D02*
D03*
X1874774Y5320552D02*
D03*
X5537973Y4790000D02*
D03*
X5840000Y4916954D02*
D03*
X5861046Y4636741D02*
D03*
Y4356741D02*
D03*
Y4076740D02*
D03*
X6043954Y4000808D02*
D03*
Y4280808D02*
D03*
Y4560809D02*
D03*
Y4840809D02*
D03*
X6160000Y5453199D02*
D03*
X5639492Y5590000D02*
D03*
X6269035Y6666267D02*
D03*
X6292799Y6387277D02*
D03*
X6112122Y6173371D02*
D03*
X2687379Y5502543D02*
D03*
X2327929Y5392581D02*
D03*
X1724954Y5502543D02*
D03*
X733546Y4938126D02*
D03*
Y4098125D02*
D03*
Y3538125D02*
D03*
Y3258125D02*
D03*
Y2978124D02*
D03*
Y2698124D02*
D03*
Y2418124D02*
D03*
X811477Y2149187D02*
D03*
X1009467Y1951198D02*
D03*
X1207457Y1753207D02*
D03*
X1405447Y1555217D02*
D03*
X2226336Y1453546D02*
D03*
X2506337D02*
D03*
X2786337D02*
D03*
X3346337D02*
D03*
X4186338D02*
D03*
X4466338D02*
D03*
X4746338D02*
D03*
X5306339D02*
D03*
X5930000Y1448369D02*
D03*
X6146339Y1453546D02*
D03*
X6426339D02*
D03*
X7708897Y1699409D02*
D03*
X7730000Y1920000D02*
D03*
Y2270000D02*
D03*
X7663612Y2535723D02*
D03*
X7465622Y2733713D02*
D03*
X7267632Y2931703D02*
D03*
X7106454Y3160661D02*
D03*
X7109999Y3290000D02*
D03*
X7129999Y3690000D02*
D03*
X7106454Y4000661D02*
D03*
Y4280661D02*
D03*
Y4840662D02*
D03*
Y5680663D02*
D03*
X7187720Y5948610D02*
D03*
X7385710Y6146600D02*
D03*
X7583701Y6344590D02*
D03*
X2940013Y6582001D02*
D03*
X2787053Y6706267D02*
D03*
X2952596Y6128812D02*
D03*
X4625000Y6265882D02*
D03*
X6150000Y6376632D02*
D03*
Y6627000D02*
D03*
X4224443Y2679308D02*
D03*
X4337580Y2566171D02*
D03*
X4450718Y2453034D02*
D03*
X4591926Y2377800D02*
D03*
X4751926D02*
D03*
X4911927D02*
D03*
X5071927D02*
D03*
X5231927D02*
D03*
X5391927D02*
D03*
X5515876Y2276623D02*
D03*
X5376533Y1940000D02*
D03*
X5740141Y2078542D02*
D03*
X5804373Y2271459D02*
D03*
X5693977Y2387272D02*
D03*
X4400000Y2790000D02*
D03*
X3517158Y3914473D02*
D03*
X3357323Y3907200D02*
D03*
X3197323D02*
D03*
X3037323D02*
D03*
X2877323D02*
D03*
X2717323D02*
D03*
X2557323D02*
D03*
X2397322D02*
D03*
X2237322D02*
D03*
X2077322D02*
D03*
X1917322D02*
D03*
X1766186Y3959717D02*
D03*
X1606361Y3967200D02*
D03*
X1449795Y3934228D02*
D03*
X1432800Y3775133D02*
D03*
X1871794Y3742800D02*
D03*
X2031794D02*
D03*
X2191794D02*
D03*
X2351795D02*
D03*
X2511795D02*
D03*
X2671795D02*
D03*
X2831795D02*
D03*
X2991795D02*
D03*
X3151796D02*
D03*
X3311796D02*
D03*
X3471796D02*
D03*
X3870151Y2386399D02*
D03*
X3757192Y2273083D02*
D03*
X3600415Y2241129D02*
D03*
X3934290Y2078542D02*
D03*
X4070000Y2377800D02*
D03*
X4043200Y2517343D02*
D03*
Y2677343D02*
D03*
Y2837344D02*
D03*
X5166000Y4814114D02*
D03*
X3687800Y3727168D02*
D03*
Y3087167D02*
D03*
Y2927167D02*
D03*
Y2767166D02*
D03*
X3624131Y2620380D02*
D03*
X3510993Y2507242D02*
D03*
X3359020Y2457200D02*
D03*
X3199020D02*
D03*
X3039020D02*
D03*
X2879020D02*
D03*
X2719019D02*
D03*
X2559019D02*
D03*
X2399019D02*
D03*
X2092800Y2442329D02*
D03*
X1997992Y2313443D02*
D03*
X1842286Y2276623D02*
D03*
X1707952Y1951198D02*
D03*
X2028855Y2078542D02*
D03*
X2674665Y2292800D02*
D03*
X2834665D02*
D03*
X2994665D02*
D03*
X3154666D02*
D03*
X3314666D02*
D03*
X3474666D02*
D03*
X3611678Y2375430D02*
D03*
X3724815Y2488567D02*
D03*
X3836652Y2602990D02*
D03*
X3852200Y2762233D02*
D03*
Y2922233D02*
D03*
Y3402233D02*
D03*
Y3722234D02*
D03*
X7522047Y2277389D02*
D03*
X3545625Y3597200D02*
D03*
X3385625D02*
D03*
X3225625D02*
D03*
X3065625D02*
D03*
X2905624D02*
D03*
X2745624D02*
D03*
X2585624D02*
D03*
X2425624D02*
D03*
X2265624D02*
D03*
X2105623D02*
D03*
X1945623D02*
D03*
X1786268Y3611552D02*
D03*
X1636040Y3666611D02*
D03*
X1480331Y3629803D02*
D03*
X1443505Y3474098D02*
D03*
X1890694Y3432800D02*
D03*
X2050694D02*
D03*
X2210694D02*
D03*
X2370694D02*
D03*
X2530694D02*
D03*
X2690695D02*
D03*
X2850695D02*
D03*
X3010695D02*
D03*
X3170695D02*
D03*
X3330695D02*
D03*
X3490696D02*
D03*
X3649217Y3411097D02*
D03*
X4294845Y2888091D02*
D03*
X4516000Y2664782D02*
D03*
X4625354Y2580000D02*
D03*
X4764879Y2567800D02*
D03*
X4924879D02*
D03*
X5084879D02*
D03*
X5244880D02*
D03*
X5404880D02*
D03*
X5564880D02*
D03*
X5724880D02*
D03*
X5884880D02*
D03*
X6044880D02*
D03*
X6204881D02*
D03*
X6364881D02*
D03*
X6524881D02*
D03*
X6684881D02*
D03*
X6844881D02*
D03*
X6960160Y2456845D02*
D03*
X7149556Y2078541D02*
D03*
X7354735Y2276059D02*
D03*
X7245375Y2392851D02*
D03*
X7138017Y2511486D02*
D03*
X7024880Y2624623D02*
D03*
X6903354Y2728699D02*
D03*
X6743392Y2732200D02*
D03*
X6583392D02*
D03*
X6423392D02*
D03*
X6263392D02*
D03*
X6103392D02*
D03*
X5943391D02*
D03*
X4983390D02*
D03*
X4823390D02*
D03*
X4679690Y2802558D02*
D03*
X4566553Y2915695D02*
D03*
X4453416Y3028833D02*
D03*
X5303688Y4687439D02*
D03*
X5502200Y4935895D02*
D03*
Y5095895D02*
D03*
Y5255896D02*
D03*
X2133650Y4359770D02*
D03*
X1937557Y4368986D02*
D03*
X1905000Y5033802D02*
D03*
X2015882Y5797925D02*
D03*
X3188000Y4767813D02*
D03*
X2850000Y4772910D02*
D03*
X2510000D02*
D03*
X3190000Y4450000D02*
D03*
X5199208Y4489314D02*
D03*
X3770000Y3909700D02*
D03*
X3670014Y3515000D02*
D03*
X4421000Y4525000D02*
D03*
X4685789Y5862211D02*
D03*
X5420000Y5450000D02*
D03*
X4748548Y6845519D02*
D03*
X4981538Y5455000D02*
D03*
X4731000Y5380000D02*
D03*
X4661000Y5750000D02*
D03*
X6995104Y1504896D02*
D03*
X6230000Y2250000D02*
D03*
X4400000D02*
D03*
X2560000D02*
D03*
X7010000Y1640000D02*
D03*
X4650000Y4450000D02*
D03*
X825000Y5325000D02*
D03*
X2974000Y6275000D02*
D03*
%TF.MD5,9f0e30ad8c907eb727c9ec4979bae568*%
M02*
