M48
;Layer_Color=13421619
;FILE_FORMAT=4:4
METRIC
;TYPE=PLATED
T1F00S00C0.4000
T2F00S00C0.8000
T3F00S00C0.9000
T4F00S00C1.0000
T5F00S00C2.0000
T6F00S00C3.5000
T7F00S00C6.4000
%
T01
X00416000Y00081000
X00530634Y00145355
X00522621Y00163645
X00537653Y00194000
X00539193Y00237780
X00523193
X00524488Y00256780
X00540488
X00556488
X00572488
X00588488
X00604488
X00620488
X00636488
X00652488
X00668488
X00684488
X00690335Y00272870
X00674339Y00273220
X00658339
X00642339
X00626339
X00610339
X00594339
X00583774Y00295000
X00580000Y00321000
X00586105Y00407674
X00604395Y00400081
Y00428081
X00586105Y00435674
Y00463674
X00604395Y00456081
Y00484081
X00621000Y00479047
X00617601Y00498627
X00642775Y00489347
X00670163Y00491449
X00669000Y00469953
X00692355Y00457826
Y00429826
X00710645Y00428066
Y00400066
X00692355Y00401826
X00713000Y00369000
X00711000Y00329000
X00710645Y00316066
X00692355Y00317826
X00702383Y00291684
X00726763Y00293170
X00722182Y00271885
X00746562Y00273371
X00741981Y00252086
X00766361Y00253572
X00773000Y00227000
X00752205Y00227739
X00735473Y00227606
X00724538Y00239285
X00713802Y00251149
X00702488Y00262462
X00696016Y00245685
X00681071Y00235596
X00659855Y00217325
Y00189324
X00648693Y00163645
X00642634Y00145355
X00614634
X00593000Y00144837
X00578620Y00163645
X00602855Y00177671
X00621145Y00168659
Y00196659
X00623000Y00225000
X00580437Y00227146
X00569398Y00238727
X00551588Y00227662
X00574014Y00207854
X00584911Y00199165
X00714956Y00207854
X00752205Y00192000
X00773000
X00770890Y00169941
X00769000Y00149296
X00708500Y00141000
X00699510Y00150490
X00701000Y00164000
X00710645Y00484066
X00627500Y00444000
X00584000Y00491695
X00550220Y00493590
X00553797Y00479000
X00544155Y00459040
X00540018Y00439913
X00525500Y00435674
X00519921Y00448931
X00530369Y00468744
X00516600Y00481411
X00473835Y00505325
X00465000Y00445000
X00442100Y00452500
X00414600Y00457587
X00413045Y00474500
X00377484Y00482128
X00318800Y00476781
X00319000Y00445000
X00315990Y00398855
X00319732Y00390720
X00335732
X00351716Y00391447
X00347180Y00374280
X00331180
X00315180
X00299179
X00283179
X00267180
X00251180
X00235180
X00219179
X00203179
X00187179
X00191732Y00390720
X00207732
X00203990Y00398855
X00223732Y00390720
X00239732
X00231990Y00398855
X00259990
X00255732Y00390720
X00271732
X00287732
X00287990Y00398855
X00303732Y00390720
X00306562Y00359720
X00322562
X00338563
X00354562
X00367001Y00351500
X00364922Y00341110
X00349070Y00343280
X00333069
X00317069
X00301070
X00285070
X00269069
X00253069
X00237069
X00221069
X00205069
X00189069
X00194562Y00359720
X00210562
X00226562
X00242562
X00258562
X00274562
X00290562
X00296000Y00311000
X00323000Y00312000
X00355000Y00322000
X00368780Y00324717
Y00308717
Y00292717
Y00276717
X00385220Y00276223
Y00292223
Y00308223
Y00324223
Y00340223
Y00372223
X00368780Y00372717
X00377000Y00390970
X00400100Y00402470
X00419743Y00405000
X00460084Y00387474
X00444428Y00353547
X00424076Y00338474
X00429484Y00288809
X00415966Y00286034
X00404320Y00283734
Y00267734
Y00251734
X00407000Y00237780
X00387015Y00238640
X00375719Y00227308
X00360042Y00224113
X00361168Y00237543
X00347467Y00229280
X00331467
X00315467
X00299466
X00283466
X00267467
X00256000Y00225000
X00255902Y00245720
X00271902
X00287902
X00303902
X00319902
X00335902
X00351099Y00250724
X00362413Y00262038
X00383665Y00260299
X00372481Y00248857
X00393429Y00207854
X00404160Y00198354
X00439145Y00197042
Y00169042
X00420855Y00175875
X00418634Y00145355
X00446634
X00474634
X00466620Y00163645
X00494621
X00491193Y00237780
X00475193
X00459193
X00445072Y00245303
X00433758Y00256617
X00422444Y00267931
X00440000Y00279000
X00451600Y00266478
X00462535Y00258000
X00476488Y00256780
X00492488
X00508488
X00507193Y00237780
X00498339Y00273220
X00482339
X00467969Y00280256
X00456655Y00291569
X00445342Y00302883
X00440000Y00225000
X00395667Y00163645
X00339667
X00334634Y00145355
X00311667Y00163645
X00283666
X00278634Y00145355
X00250634
X00222634
X00231022Y00163645
X00203022
X00202885Y00207854
X00211039Y00204194
X00235855Y00191225
X00254145Y00196719
X00256143Y00168790
X00235579Y00217678
X00239902Y00245720
X00228000Y00257866
X00218100Y00271000
X00206144Y00282414
X00196000Y00293866
Y00311000
X00175890Y00305000
X00172291Y00277000
X00158500
X00146000Y00280000
X00143280Y00304000
X00144351Y00347410
X00148033Y00362980
X00163604Y00366661
X00178627Y00361155
X00176619Y00395972
X00160636Y00396720
X00144979Y00393423
X00143280Y00377513
X00156253Y00420914
X00136454Y00440713
X00193756Y00436899
X00213365Y00435977
X00251000Y00477291
X00285000
X00190500Y00503380
X00228000Y00312000
X00262000Y00311000
X00201000Y00256500
X00209280Y00244233
X00199799Y00231344
X00184229Y00227662
X00189069Y00268101
X00170795Y00195120
X00128912Y00193022
X00120746Y00175321
X00148711Y00173223
X00140545Y00155522
X00158000Y00144837
X00348022Y00191000
X00100947Y00195120
X00109113Y00212821
X00081148Y00214919
X00091645Y00234704
X00073355Y00241812
Y00269812
X00091645Y00262704
Y00290704
X00073355Y00297812
Y00325812
X00091645Y00318704
Y00346704
X00073355Y00353812
Y00381813
X00091645Y00374704
Y00402704
X00073355Y00409813
Y00437812
X00091645Y00430704
X00110555Y00451355
X00073000Y00477000
X00073355Y00493813
X00051000Y00432000
X00041000Y00425000
X00073387Y00521780
X00082500Y00532500
X00163100Y00518280
X00187477Y00532055
X00172495Y00550254
X00190000Y00566798
X00201588Y00579793
X00246000Y00602200
X00277000Y00589498
X00288000Y00571621
X00268738Y00550254
X00232793Y00539258
X00345000Y00562000
X00337308Y00624101
X00297400Y00627500
X00295260Y00612881
X00284000Y00642000
X00294001Y00658200
X00305893Y00651350
X00265899Y00656775
X00278705Y00670627
X00277000Y00754600
X00249547
X00263200Y00773000
X00292099Y00772806
X00280615Y00791576
Y00813073
X00252615
X00231855Y00794284
X00204420Y00768913
X00327440Y00778000
X00358000Y00778619
X00390601Y00775432
X00402803Y00786500
X00416338Y00775432
X00452300Y00777426
X00496250Y00767000
X00484000Y00752000
X00474855Y00684552
X00475592Y00640462
X00485531Y00639366
X00496960Y00634833
X00462500Y00626588
X00450281Y00626853
X00439700Y00611741
X00394319Y00609372
X00402825Y00629000
X00402263Y00652778
X00417200Y00653100
X00432821Y00652778
X00386903
X00359981Y00653100
X00358700Y00737100
X00389053Y00745820
X00413355Y00820401
X00432209Y00828541
Y00843855
X00451000
X00488209
X00488151Y00862145
X00470450Y00870000
X00404151Y00862145
X00344900Y00862795
X00342405Y00839471
X00324394Y00847327
X00322606Y00819672
X00304595Y00827528
X00349500Y00820401
X00411200Y00546000
X00438999Y00538999
X00473100Y00538000
X00487668Y00539193
X00498154Y00545500
X00503937Y00567175
X00509496Y00589498
X00480667Y00576523
X00466100Y00575000
X00468579Y00586221
X00529281Y00589498
X00552500Y00588592
Y00598750
X00563949Y00559000
X00583999
X00605555Y00557000
X00616000Y00545320
X00625500Y00533000
X00624724Y00510752
X00648586Y00547000
X00639500Y00559009
X00626903Y00570413
X00621000Y00588622
X00609522Y00578000
X00597395Y00578504
X00611212Y00617337
X00615000Y00637663
X00629280Y00638728
X00626903Y00666627
X00615000Y00662700
X00577260Y00658631
X00531950Y00680655
X00512869Y00706406
X00520281Y00747257
X00547500
Y00726781
X00540000Y00769000
X00552038Y00782500
X00545600Y00817153
X00544209Y00843855
X00516209
X00516152Y00862145
X00514000Y00875174
X00600151Y00862145
X00595855Y00828859
X00614145Y00826397
X00615947Y00800591
X00605281Y00776500
X00595281Y00776500
X00631931Y00714553
X00626438Y00694623
X00668000Y00672000
X00658500Y00624600
X00645023Y00611855
X00633100Y00599944
X00692355Y00590034
Y00562034
X00710645Y00568066
X00718772Y00594861
X00709899Y00611855
X00738571Y00614660
X00758370Y00634459
X00746813Y00653815
X00765733Y00661179
X00796088Y00708486
Y00764486
Y00792486
Y00820486
X00773855Y00814440
Y00842440
X00794635Y00850165
X00780000Y00866000
X00712152Y00862145
X00720037Y00843859
X00692037Y00843855
X00693000Y00819000
X00723500
X00684152Y00862145
X00656152
X00664037Y00843855
X00636037
X00773855Y00786440
Y00758440
X00837000Y00901000
X00542000Y00545000
X00550220Y00525590
Y00509590
T02
X00521900Y00297500
X00496500
X00471100
X00472100Y00730000
X00497500
X00497100Y00787500
X00471700
X00262200Y00730000
Y00704600
Y00679200
Y00630000
Y00604600
Y00579200
X00522900Y00730000
X00522500Y00787500
X00638914Y00791800
Y00766400
Y00741000
T03
X00305900Y00597500
X00331300
X00356700
X00382100
X00407500
X00432900
X00458300
X00483700
Y00673700
X00458300
X00432900
X00407500
X00382100
X00356700
X00331300
X00305900
T04
X00127500Y00292500
X00157500
Y00322500
X00127500
Y00352500
X00157500
Y00382500
X00127500
Y00472500
Y00502500
X00157500
Y00472500
Y00532500
X00127500
X00129000Y00672527
X00159000
Y00702527
Y00732527
X00129000
Y00702527
Y00762527
X00159000
T05
X00143300Y00063300
X00214000Y00046000
X00254000Y00104000
X00328300Y00063300
X00399000Y00046000
X00439000Y00104000
X00513300Y00063300
X00584000Y00046000
X00624000Y00104000
X00698300Y00063300
X00769000Y00046000
X00809000Y00104000
X00739000Y00174000
X00681000Y00134000
X00554000Y00174000
X00721000Y00463500
X00791700Y00480800
X00496000Y00134000
X00369000Y00174000
X00311000Y00134000
X00184000Y00174000
X00126000Y00134000
X00196000Y00836000
X00254000Y00876000
X00311000Y00903500
X00381000Y00833500
X00439000Y00873500
X00496000Y00903500
X00566000Y00833500
X00624000Y00873500
X00681000Y00903500
X00751000Y00833500
X00751000Y00776500
X00809000Y00736500
X00791700Y00665800
X00721000Y00648500
X00751000Y00591500
X00809000Y00551500
X00681000Y00521500
Y00706500
X00809000Y00873500
X00791700Y00944200
X00721000Y00961500
X00606700Y00944200
X00536000Y00961500
X00421700Y00944200
X00351000Y00961500
X00236700Y00946700
X00166000Y00964000
X00126000Y00906000
T06
X00060000Y00060000
X00880000
X00864000Y00940000
X00060000
T07
X00190000Y00110000
X00375000
X00560000
X00745000
X00375000Y00897500
X00190000Y00900000
X00560000Y00897500
X00745000
X00745000Y00712500
Y00527500
M30
